<?xml version="1.0" standalone="no"?>
<!DOCTYPE svg PUBLIC "-//W3C//DTD SVG 1.1//EN" "http://www.w3.org/Graphics/SVG/1.1/DTD/svg11.dtd" >
<svg>
<metadata>
Created by FontForge 20090914 at Tue Jul 23 19:56:48 2013
 By www-data
Copyright (c) 2012 by PYRS Fontlab Ltd. / Made with FontLab. All rights reserved.
</metadata>
<defs>
<font id="Neou-Thin" horiz-adv-x="341" >
  <font-face 
    font-family="Neou Thin"
    font-weight="100"
    font-stretch="normal"
    units-per-em="1000"
    panose-1="0 0 0 0 0 0 0 0 0 0"
    ascent="715"
    descent="-285"
    x-height="714.998"
    cap-height="715"
    bbox="-0.00195312 -282.001 1021 850"
    underline-thickness="50"
    underline-position="-49"
    unicode-range="U+000D-U+201D"
  />
<missing-glyph horiz-adv-x="500" 
d="M63 0v715h375v-715h-375v0zM125 63h250v590h-250v-590v0z" />
    <glyph glyph-name=".notdef" horiz-adv-x="500" 
d="M63 0v715h375v-715h-375v0zM125 63h250v590h-250v-590v0z" />
    <glyph glyph-name="NULL" horiz-adv-x="0" 
 />
    <glyph glyph-name="NULL" horiz-adv-x="0" 
 />
    <glyph glyph-name="nonmarkingreturn" unicode="&#xd;" horiz-adv-x="0" 
 />
    <glyph glyph-name="space" unicode=" " 
 />
    <glyph glyph-name="exclam" unicode="!" horiz-adv-x="151" 
d="M33 110h-20v605h20v-605zM23 39c5.33301 0 10 -1.83301 14 -5.5s6 -8.16699 6 -13.5s-2 -10 -6 -14s-8.66699 -6 -14 -6s-10 2 -14 6s-6 8.66699 -6 14s2 9.83301 6 13.5s8.66699 5.5 14 5.5z" />
    <glyph glyph-name="quotedbl" unicode="&#x22;" horiz-adv-x="192" 
d="M81 714v-118h-19v118h19zM0 714h19v-118h-19v118z" />
    <glyph glyph-name="numbersign" unicode="#" horiz-adv-x="578" 
d="M344 483h-178l-20 -250h179zM363 483l-19 -250h131v-19h-132l-17 -213h-19l16 213h-178l-17 -213h-19l17 213h-126v19h127l19 250h-131v19h133l16 213h20l-17 -213h179l16 213h19l-16 -213h125v-19h-127z" />
    <glyph glyph-name="dollar" unicode="$" horiz-adv-x="517" 
d="M238 19c22.667 0 43.834 4.33203 63.501 12.999s36.834 20.5 51.501 35.5s26.334 32.333 35.001 52s13 40.834 13 63.501s-4.33301 44 -13 64s-20.334 37.5 -35.001 52.5s-31.834 26.833 -51.501 35.5s-40.834 13 -63.501 13h-12c-2.66699 0 -4.66699 0.333008 -6 1v-330
h18v0zM201 366.999h-1h1zM39 530.999c0 -22.667 4.16699 -43.833 12.5 -63.5s19.833 -37 34.5 -52s31.834 -26.833 51.501 -35.5s40.834 -13 63.501 -13v329c-22.667 0 -43.834 -4.33301 -63.501 -13s-36.834 -20.5 -51.501 -35.5s-26.167 -32.5 -34.5 -52.5
s-12.5 -41.333 -12.5 -64zM273 364c20.667 -4 39.998 -11.4971 57.998 -22.4971s33.667 -24.5 47 -40.5s23.666 -34 30.999 -54s11 -41.333 11 -64c0 -25.333 -4.83301 -49.166 -14.5 -71.499s-22.667 -41.666 -39 -57.999s-35.666 -29.333 -57.999 -39
s-45.833 -14.5 -70.5 -14.5h-18v-43h-19v43h-18c-25.333 0 -49.166 4.83301 -71.499 14.5s-41.666 22.667 -57.999 39s-29.333 35.666 -39 57.999s-14.5 46.166 -14.5 71.499v4h19v-4c0 -22.667 4.33301 -43.834 13 -63.501s20.5 -37 35.5 -52s32.333 -26.833 52 -35.5
s40.834 -13 63.501 -13h18v331c-8 0.666992 -16.167 1.66699 -24.5 3l-24.5 4c-8 1.33301 -15.333 3.16602 -22 5.49902s-11.667 4.83301 -15 7.5c-28.667 15.333 -51.834 37.333 -69.501 66s-26.5 60.334 -26.5 95.001c0 25.333 4.66699 49.166 14 71.499
s22.333 41.666 39 57.999s36 29.5 58 39.5s45.667 15 71 15v37h19v-37c24 0 46.833 -4.66699 68.5 -14s40.5 -21.833 56.5 -37.5s29 -34 39 -55s15.667 -43.5 17 -67.5h-20c-1.33301 21.333 -6.33301 41.333 -15 60s-20.334 35 -35.001 49s-31.5 25.167 -50.5 33.5
s-39.167 12.5 -60.5 12.5v-329c6.66699 0 13.334 -0.333008 20.001 -1c5.33301 -0.666992 11 -1.16699 17 -1.5s11.333 -0.5 16 -0.5z" />
    <glyph glyph-name="percent" unicode="%" horiz-adv-x="578" 
d="M121 688c-14 0 -27.167 -2.66699 -39.5 -8s-23.166 -12.666 -32.499 -21.999s-16.666 -20 -21.999 -32s-8 -25 -8 -39s2.66699 -27.167 8 -39.5s12.666 -23.166 21.999 -32.499s20.166 -16.666 32.499 -21.999s25.5 -8 39.5 -8s27.167 2.66699 39.5 8
s23 12.666 32 21.999s16.167 20.166 21.5 32.499s8 25.5 8 39.5s-2.66699 27 -8 39s-12.5 22.667 -21.5 32s-19.667 16.666 -32 21.999s-25.5 8 -39.5 8zM121 466c-16.667 0 -32.334 3.16699 -47.001 9.5s-27.5 15 -38.5 26s-19.667 23.833 -26 38.5
s-9.5 30.334 -9.5 47.001s3.16699 32.167 9.5 46.5s15 27 26 38s23.833 19.667 38.5 26s30.334 9.5 47.001 9.5s32.167 -3.16699 46.5 -9.5s27 -15 38 -26s19.667 -23.667 26 -38s9.5 -29.833 9.5 -46.5s-3.16699 -32.334 -9.5 -47.001s-15 -27.5 -26 -38.5
s-23.667 -19.667 -38 -26s-29.833 -9.5 -46.5 -9.5zM369 20c14 0 27.167 2.66699 39.5 8s23.166 12.5 32.499 21.5s16.666 19.667 21.999 32s8 25.5 8 39.5s-2.66699 27.167 -8 39.5s-12.666 23.166 -21.999 32.499s-20.166 16.666 -32.499 21.999s-25.5 8 -39.5 8
s-27.167 -2.66699 -39.5 -8s-23 -12.666 -32 -21.999s-16.167 -20.166 -21.5 -32.499s-8 -25.5 -8 -39.5s2.66699 -27.167 8 -39.5s12.5 -23 21.5 -32s19.667 -16.167 32 -21.5s25.5 -8 39.5 -8zM369 242c16.667 0 32.334 -3.16699 47.001 -9.5s27.5 -15 38.5 -26
s19.667 -23.833 26 -38.5s9.5 -30.334 9.5 -47.001s-3.16699 -32.334 -9.5 -47.001s-15 -27.5 -26 -38.5s-23.833 -19.667 -38.5 -26s-30.334 -9.5 -47.001 -9.5s-32.167 3.16699 -46.5 9.5s-27 15 -38 26s-19.667 23.833 -26 38.5s-9.5 30.334 -9.5 47.001
s3.16699 32.334 9.5 47.001s15 27.5 26 38.5s23.667 19.667 38 26s29.833 9.5 46.5 9.5zM490 715l-471 -715h-19l471 715h19z" />
    <glyph glyph-name="ampersand" unicode="&#x26;" horiz-adv-x="636" 
d="M234 19c20.667 0 40.332 3.83398 58.999 11.501s35.334 18 50.001 31s26.667 28.5 36 46.5s15 37.333 17 58v182h-213c-22.667 0 -43.834 -4.33301 -63.501 -13s-37 -20.5 -52 -35.5s-26.833 -32.5 -35.5 -52.5s-13 -41.333 -13 -64s4.33301 -43.834 13 -63.501
s20.5 -37 35.5 -52s32.333 -26.833 52 -35.5s40.834 -13 63.501 -13h51v0zM561.998 18.001c-8.66699 -5.33301 -17.8359 -9.66211 -27.5029 -12.9951s-20.167 -5 -31.5 -5c-14 0 -27.333 2.5 -40 7.5s-23.667 12 -33 21s-17 19.667 -23 32s-9.33301 25.5 -10 39.5h-1
c-15.333 -30 -37.166 -54.167 -65.499 -72.5s-60.5 -27.5 -96.5 -27.5h-51c-25.333 0 -49.166 4.83301 -71.499 14.5s-41.666 22.667 -57.999 39s-29.333 35.666 -39 57.999s-14.5 46.166 -14.5 71.499c0 22.667 3.83301 44 11.5 64s18 38 31 54s28.5 29.5 46.5 40.5
s37.333 18.5 58 22.5c-32 14 -58 36 -78 66s-30 63.667 -30 101c0 25.333 4.83301 49.166 14.5 71.499s22.667 41.833 39 58.5s35.5 29.834 57.5 39.501s45.667 14.5 71 14.5h23c24 0 46.5 -5 67.5 -15s39.167 -23.333 54.5 -40s27.5 -36.167 36.5 -58.5
s13.5 -45.5 13.5 -69.5h-20c0 22 -4 42.5 -12 61.5s-18.833 35.833 -32.5 50.5s-29.667 26.667 -48 36s-38.166 14.666 -59.499 15.999h-23c-22.667 0 -43.834 -4.33301 -63.501 -13s-36.834 -20.5 -51.501 -35.5s-26.334 -32.5 -35.001 -52.5s-13 -41.333 -13 -64
s4.33301 -43.834 13 -63.501s20.334 -37 35.001 -52s31.834 -26.833 51.501 -35.5s40.834 -13 63.501 -13h175v84h20v-84h79v-19h-79v-248c0 -22.667 8.66699 -41.834 26 -57.501s37.666 -23.5 60.999 -23.5c8.66699 0 17 1.33301 25 4s15.333 6 22 10z" />
    <glyph glyph-name="quotesingle" unicode="'" horiz-adv-x="134" 
d="M23 596h-20v118h20v-118z" />
    <glyph glyph-name="parenleft" unicode="(" horiz-adv-x="239" 
d="M147 1c-20.667 0 -39.834 9.1709 -57.501 27.5039s-33.167 43.666 -46.5 75.999s-23.833 70.166 -31.5 113.499s-11.5 90 -11.5 140s3.83301 96.667 11.5 140s18.167 81.166 31.5 113.499s28.833 57.666 46.5 75.999s36.834 27.5 57.501 27.5v-19
c-17.333 0 -33.666 -9 -48.999 -27s-28.833 -42.5 -40.5 -73.5s-21 -66.833 -28 -107.5s-10.5 -84 -10.5 -130s3.5 -89.333 10.5 -130s16.333 -76.5 28 -107.5s25.167 -55.5 40.5 -73.5s31.666 -27 48.999 -27v-19z" />
    <glyph glyph-name="parenright" unicode=")" horiz-adv-x="251" 
d="M0 20c17.333 0 33.666 8.99609 48.999 26.9961s28.833 42.5 40.5 73.5s21 66.833 28 107.5s10.5 84 10.5 130s-3.5 89.333 -10.5 130s-16.333 76.5 -28 107.5s-25.167 55.5 -40.5 73.5s-31.666 27 -48.999 27v19c20.667 0 39.834 -9.16699 57.501 -27.5
s33.167 -43.666 46.5 -75.999s23.833 -70.166 31.5 -113.499s11.5 -90 11.5 -140s-3.83301 -96.667 -11.5 -140s-18.167 -81.166 -31.5 -113.499s-28.833 -57.666 -46.5 -75.999s-36.834 -27.5 -57.501 -27.5v19z" />
    <glyph glyph-name="asterisk" unicode="*" horiz-adv-x="245" 
d="M136 607c5.33301 -4 6.33398 -8.33301 3.00098 -13c-3.33301 -5.33301 -7.66602 -6.66602 -12.999 -3.99902l-46 28v-54c0 -6 -3.33301 -9 -10 -9c-6 0 -9 3 -9 9v54l-46 -28c-6 -2.66699 -10.667 -1.33398 -14 3.99902c-0.666992 2 -0.833984 4.33301 -0.500977 7
s1.83301 4.66699 4.5 6l46 28l-46 28c-4 2.66699 -5.33301 7 -4 13c3.33301 5.33301 8 6.33301 14 3l46 -27v53c0 6.66699 3 10 9 10c6.66699 0 10 -3.33301 10 -10v-53l46 27c5.33301 4 9.66602 3 12.999 -3c2.66699 -4.66699 1.66699 -9 -3 -13l-47 -28l47 -28v0z" />
    <glyph glyph-name="plus" unicode="+" horiz-adv-x="420" 
d="M333 338h-157v-157h-19v157h-157v19h157v157h19v-157h157v-19z" />
    <glyph glyph-name="comma" unicode="," horiz-adv-x="168" 
d="M28 20h23l-41 -118h-10z" />
    <glyph glyph-name="hyphen" unicode="-" horiz-adv-x="338" 
d="M0 338v19h215v-19h-215z" />
    <glyph glyph-name="period" unicode="." horiz-adv-x="155" 
d="M43 20c0 -5.33301 -2 -10 -6 -14s-8.66699 -6 -14 -6s-10 2 -14 6s-6 8.66699 -6 14s2 9.83301 6 13.5s8.66699 5.5 14 5.5s10 -1.83301 14 -5.5s6 -8.16699 6 -13.5z" />
    <glyph glyph-name="slash" unicode="/" horiz-adv-x="354" 
d="M19 0h-19l249 715h19z" />
    <glyph glyph-name="zero" unicode="0" horiz-adv-x="652" 
d="M326 0c-90 0 -158.669 35.333 -206.002 106c-21.333 31.333 -37.166 68.166 -47.499 110.499s-15.5 89.166 -15.5 140.499s5.66699 98.166 17 140.499s27.666 79.5 48.999 111.5c23.333 34.667 52.333 61 87 79s73.334 27 116.001 27s81.334 -9 116.001 -27
s63.667 -44.333 87 -79c21.333 -32 37.666 -69.167 48.999 -111.5s17 -89.166 17 -140.499s-5.16699 -98.166 -15.5 -140.499s-26.166 -79.166 -47.499 -110.499c-47.333 -70.667 -116 -106 -206 -106zM325.998 696c-46 0 -84.8311 -10 -116.498 -30s-57.5 -46 -77.5 -78
s-34.333 -68.333 -43 -109s-13 -81.334 -13 -122.001c0 -100.667 20 -180.667 60 -240c43.333 -65.333 106.666 -98 189.999 -98s146.666 32.667 189.999 98c40 59.333 60 139.333 60 240c0 40.667 -4.33301 81.334 -13 122.001s-23 77 -43 109s-45.833 58 -77.5 78
s-70.5 30 -116.5 30z" />
    <glyph glyph-name="one" unicode="1" horiz-adv-x="652" 
d="M424 715v-715h-19v687l-164 -163l-13 13l177 178v0h19z" />
    <glyph glyph-name="two" unicode="2" horiz-adv-x="652" 
d="M538 19v-19.001h-413v19l344 356c13.333 17.333 23.833 36.5 31.5 57.5s11.5 43.5 11.5 67.5c0 26.667 -5 52 -15 76s-23.5 44.833 -40.5 62.5s-37.167 31.667 -60.5 42s-48 15.5 -74 15.5s-50.5 -5.16699 -73.5 -15.5s-43 -24.333 -60 -42s-30.5 -38.5 -40.5 -62.5
s-15 -49.333 -15 -76h-19c0 29.333 5.5 57 16.5 83s26 48.833 45 68.5s41 35.167 66 46.5s51.833 17 80.5 17s55.667 -5.66699 81 -17s47.5 -26.833 66.5 -46.5s34 -42.5 45 -68.5s16.5 -53.667 16.5 -83c0 -30 -5.5 -58.167 -16.5 -84.5s-26.167 -49.166 -45.5 -68.499
l-318 -328h387z" />
    <glyph glyph-name="three" unicode="3" horiz-adv-x="652" 
d="M386 364c20.667 -4 40.167 -11.5049 58.5 -22.5049s34 -24.5 47 -40.5s23.333 -34 31 -54s11.5 -41.333 11.5 -64c0 -25.333 -4.83301 -49.166 -14.5 -71.499s-22.667 -41.666 -39 -57.999s-35.666 -29.333 -57.999 -39s-46.166 -14.5 -71.499 -14.5h-51
c-24 0 -46.5 4.33301 -67.5 13s-39.667 20.5 -56 35.5s-29.666 32.5 -39.999 52.5s-16.5 41.667 -18.5 65h19c2 -20.667 7.83301 -40 17.5 -58s21.667 -33.5 36 -46.5s30.833 -23.333 49.5 -31s38.667 -11.5 60 -11.5h51c22.667 0 43.834 4.33301 63.501 13s37 20.5 52 35.5
s26.833 32.333 35.5 52s13 40.834 13 63.501s-4.33301 44 -13 64s-20.5 37.5 -35.5 52.5s-32.333 26.833 -52 35.5s-40.834 13 -63.501 13h-82v19h43c22.667 0 44 4.33301 64 13s37.333 20.5 52 35.5s26.334 32.333 35.001 52s13 40.834 13 63.501s-4.33301 44 -13 64
s-20.334 37.5 -35.001 52.5s-32 26.833 -52 35.5s-41.333 13 -64 13h-22c-21.333 -1.33301 -41.333 -6.66602 -60 -15.999s-34.834 -21.333 -48.501 -36s-24.5 -31.5 -32.5 -50.5s-12 -39.5 -12 -61.5h-19c0 24 4.5 47.167 13.5 69.5s21.167 41.833 36.5 58.5
s33.5 30 54.5 40s43.5 15 67.5 15h22c25.333 0 49.166 -4.83301 71.499 -14.5s41.666 -22.834 57.999 -39.501s29.333 -36.167 39 -58.5s14.5 -46.166 14.5 -71.499c0 -37.333 -10.167 -71 -30.5 -101s-46.5 -52 -78.5 -66z" />
    <glyph glyph-name="four" unicode="4" horiz-adv-x="652" 
d="M465 277v409l-318 -409h318zM529 257h-45v-257h-19v257h-342v20l340 438l2 -2v2h19v-438h45v-20z" />
    <glyph glyph-name="five" unicode="5" horiz-adv-x="652" 
d="M299 430c30 0 58 -5.66992 84 -17.0029s48.667 -26.833 68 -46.5s34.666 -42.5 45.999 -68.5s17 -54 17 -84s-5.66699 -58 -17 -84s-26.666 -48.667 -45.999 -68s-42 -34.5 -68 -45.5s-54 -16.5 -84 -16.5c-32 0 -62 6.33301 -90 19s-51.667 30 -71 52v31
c17.333 -25.333 40 -45.666 68 -60.999s59 -23 93 -23c26.667 0 52 5.16699 76 15.5s44.833 24.333 62.5 42s31.667 38.334 42 62.001s15.5 49.167 15.5 76.5s-5.16699 53 -15.5 77s-24.333 44.833 -42 62.5s-38.5 31.667 -62.5 42s-49.333 15.5 -76 15.5
c-34 0 -65 -7.66699 -93 -23s-50.667 -35.666 -68 -60.999v31v357h9h10h313v-19h-313v-319c19.333 16.667 40.833 29.667 64.5 39s49.5 14 77.5 14z" />
    <glyph glyph-name="six" unicode="6" horiz-adv-x="652" 
d="M326 411c-27.333 0 -52.833 -5.16699 -76.5 -15.5s-44.5 -24.333 -62.5 -42s-32.167 -38.5 -42.5 -62.5s-15.5 -49.667 -15.5 -77s5.16699 -52.833 15.5 -76.5s24.5 -44.334 42.5 -62.001s38.833 -31.667 62.5 -42s49.167 -15.5 76.5 -15.5c26.667 0 52 5.16699 76 15.5
s45 24.333 63 42s32.167 38.334 42.5 62.001s15.5 49.167 15.5 76.5s-5.16699 53 -15.5 77s-24.5 44.833 -42.5 62.5s-39 31.667 -63 42s-49.333 15.5 -76 15.5zM523 499c0 27.333 -5.16699 52.999 -15.5 76.999s-24.5 44.833 -42.5 62.5s-39 31.667 -63 42
s-49.333 15.5 -76 15.5c-27.333 0 -52.833 -5.16699 -76.5 -15.5s-44.5 -24.333 -62.5 -42s-32.167 -38.5 -42.5 -62.5s-15.5 -49.667 -15.5 -77v-89v-107c17.333 38 43.5 68.667 78.5 92s74.5 35 118.5 35c30 0 58 -5.66699 84 -17s48.833 -26.833 68.5 -46.5
s35.167 -42.5 46.5 -68.5s17 -54 17 -84s-5.66699 -58 -17 -84s-26.833 -48.667 -46.5 -68s-42.5 -34.5 -68.5 -45.5s-54 -16.5 -84 -16.5c-29.333 0 -56.666 5.33301 -81.999 16s-47.833 25.334 -67.5 44.001s-35.334 40.5 -47.001 65.5s-18.167 51.833 -19.5 80.5v293
c0 30 5.66699 58 17 84s26.833 48.833 46.5 68.5s42.5 35.167 68.5 46.5s54 17 84 17s58 -5.66699 84 -17s48.833 -26.833 68.5 -46.5s35.167 -42.5 46.5 -68.5s17 -54 17 -84h-19z" />
    <glyph glyph-name="seven" unicode="7" horiz-adv-x="652" 
d="M556 696v0l-334 -696h-22l333 696h-437v19h460v-19z" />
    <glyph glyph-name="eight" unicode="8" horiz-adv-x="652" 
d="M370 19c22.667 0 43.834 4.33301 63.501 13s37 20.5 52 35.5s26.833 32.333 35.5 52s13 40.834 13 63.501s-4.33301 44 -13 64s-20.5 37.5 -35.5 52.5s-32.333 26.833 -52 35.5s-40.834 13 -63.501 13h-88c-22.667 0 -43.834 -4.33301 -63.501 -13s-37 -20.5 -52 -35.5
s-26.833 -32.5 -35.5 -52.5s-13 -41.333 -13 -64s4.33301 -43.834 13 -63.501s20.5 -37 35.5 -52s32.333 -26.833 52 -35.5s40.834 -13 63.501 -13h88v0zM157 531c0 -22.667 4.33301 -43.834 13 -63.501s20.334 -37 35.001 -52s31.834 -26.833 51.501 -35.5
s40.834 -13 63.501 -13h12c22.667 0 43.834 4.33301 63.501 13s36.834 20.5 51.501 35.5s26.334 32.333 35.001 52s13 40.834 13 63.501s-4.33301 44 -13 64s-20.334 37.5 -35.001 52.5s-31.834 26.833 -51.501 35.5s-40.834 13 -63.501 13h-12
c-22.667 0 -43.834 -4.33301 -63.501 -13s-36.834 -20.5 -51.501 -35.5s-26.334 -32.5 -35.001 -52.5s-13 -41.333 -13 -64zM406 364c20.667 -4 39.998 -11.5 57.998 -22.5s33.667 -24.5 47 -40.5s23.666 -34 30.999 -54s11 -41.333 11 -64
c0 -25.333 -4.83301 -49.166 -14.5 -71.499s-22.667 -41.666 -39 -57.999s-35.666 -29.333 -57.999 -39s-46.166 -14.5 -71.499 -14.5h-88c-25.333 0 -49.166 4.83301 -71.499 14.5s-41.666 22.667 -57.999 39s-29.333 35.666 -39 57.999s-14.5 46.166 -14.5 71.499
c0 22.667 3.66699 44 11 64s17.666 38 30.999 54s28.833 29.5 46.5 40.5s37.167 18.5 58.5 22.5c-32 14 -58 36 -78 66s-30 63.667 -30 101v1h-1c0 24 4.5 47.167 13.5 69.5s21.167 41.833 36.5 58.5s33.5 30 54.5 40s43.5 15 67.5 15h34c24 0 46.5 -5 67.5 -15
s39.167 -23.333 54.5 -40s27.5 -36.167 36.5 -58.5s13.5 -45.5 13.5 -69.5h-1v-1c0 -37.333 -10 -71 -30 -101s-46 -52 -78 -66z" />
    <glyph glyph-name="nine" unicode="9" horiz-adv-x="652" 
d="M326 303c26.667 0 52 5.16699 76 15.5s45 24.333 63 42s32.167 38.334 42.5 62.001s15.5 49.167 15.5 76.5s-5.16699 53 -15.5 77s-24.5 44.833 -42.5 62.5s-39 31.667 -63 42s-49.333 15.5 -76 15.5c-27.333 0 -52.833 -5.16699 -76.5 -15.5s-44.5 -24.333 -62.5 -42
s-32.167 -38.5 -42.5 -62.5s-15.5 -49.667 -15.5 -77s5.16699 -52.833 15.5 -76.5s24.5 -44.334 42.5 -62.001s38.833 -31.667 62.5 -42s49.167 -15.5 76.5 -15.5zM129 214c0 -27.333 5.16406 -52.832 15.4971 -76.499s24.5 -44.334 42.5 -62.001s38.833 -31.667 62.5 -42
s49.167 -15.5 76.5 -15.5c26.667 0 52 5.16699 76 15.5s45 24.333 63 42s32.167 38.334 42.5 62.001s15.5 49.167 15.5 76.5v89v107c-17.333 -38 -43.5 -68.667 -78.5 -92s-74.5 -35 -118.5 -35c-30 0 -58 5.66699 -84 17s-48.833 26.833 -68.5 46.5
s-35.167 42.5 -46.5 68.5s-17 54 -17 84s5.66699 58 17 84s26.833 48.833 46.5 68.5s42.5 35.167 68.5 46.5s54 17 84 17c28.667 0 55.834 -5.33301 81.501 -16s48.334 -25.334 68.001 -44.001s35.334 -40.667 47.001 -66s18.167 -52.333 19.5 -81v-294
c0 -30 -5.66699 -58 -17 -84s-26.833 -48.667 -46.5 -68s-42.5 -34.5 -68.5 -45.5s-54 -16.5 -84 -16.5s-58 5.5 -84 16.5s-48.833 26.167 -68.5 45.5s-35.167 42 -46.5 68s-17 54 -17 84h19z" />
    <glyph glyph-name="colon" unicode=":" horiz-adv-x="156" 
d="M23 339c-5.33301 0 -10 1.83301 -14 5.5s-6 8.16699 -6 13.5s2 10 6 14s8.66699 6 14 6s10 -2 14 -6s6 -8.66699 6 -14s-2 -9.83301 -6 -13.5s-8.66699 -5.5 -14 -5.5zM23 39c5.33301 0 10 -1.83105 14 -5.49805s6 -8.16699 6 -13.5c0 -11.333 -5.66699 -18 -17 -20h-3
h-3c-4.66699 1.33301 -8.66699 3.66602 -12 6.99902s-5 7.66602 -5 12.999s2 9.83301 6 13.5s8.66699 5.5 14 5.5z" />
    <glyph glyph-name="semicolon" unicode=";" horiz-adv-x="163" 
d="M31 339c-5.33301 0 -9.83301 1.83301 -13.5 5.5s-5.5 8.16699 -5.5 13.5s1.83301 10 5.5 14s8.16699 6 13.5 6s10 -2 14 -6s6 -8.66699 6 -14s-2 -9.83301 -6 -13.5s-8.66699 -5.5 -14 -5.5zM28 20h23l-41 -118h-10z" />
    <glyph glyph-name="equal" unicode="=" horiz-adv-x="402" 
d="M0 285h325v-19h-325v19zM325 430v-19h-325v19h325z" />
    <glyph glyph-name="question" unicode="?" horiz-adv-x="505" 
d="M208 715c28.667 0 55.668 -5.66504 81.001 -16.998s47.333 -26.833 66 -46.5s33.5 -42.5 44.5 -68.5s16.5 -53.667 16.5 -83c0 -30 -5.33301 -58.167 -16 -84.5s-25.667 -49.166 -45 -68.499l-78 -78c0 -0.666992 -2.83301 -3.5 -8.5 -8.5s-11.834 -13.333 -18.501 -25
s-12.667 -27.334 -18 -47.001s-8 -43.834 -8 -72.501h-20c0 31.333 2.83301 57.5 8.5 78.5s12 37.667 19 50s13.667 21.333 20 27s9.83301 8.83398 10.5 9.50098l93 94c13.333 17.333 23.833 36.666 31.5 57.999s11.5 43.666 11.5 66.999c0 26.667 -5 52 -15 76
s-23.5 44.833 -40.5 62.5s-37.167 31.667 -60.5 42s-48 15.5 -74 15.5s-50.5 -5.16699 -73.5 -15.5s-43.167 -24.333 -60.5 -42s-31 -38.5 -41 -62.5s-15 -49.333 -15 -76h-18c0 29.333 5.5 57 16.5 83s25.833 48.833 44.5 68.5s40.667 35.167 66 46.5s52.333 17 81 17z
M216.001 39.002c5.33301 0 10 -1.83301 14 -5.5s6 -8.16699 6 -13.5s-2 -10 -6 -14s-8.66699 -6 -14 -6s-10 2 -14 6s-6 8.66699 -6 14s2 9.83301 6 13.5s8.66699 5.5 14 5.5z" />
    <glyph glyph-name="at" unicode="@" horiz-adv-x="1121" 
d="M488 18c26.667 0 52 5.16699 76 15.5s45 24.5 63 42.5s32.167 38.833 42.5 62.5s15.5 49.167 15.5 76.5s-5.16699 53 -15.5 77s-24.5 44.833 -42.5 62.5s-39 31.667 -63 42s-49.333 15.5 -76 15.5c-27.333 0 -53 -5.16699 -77 -15.5s-45 -24.333 -63 -42
s-32.167 -38.5 -42.5 -62.5s-15.5 -49.667 -15.5 -77s5.16699 -52.833 15.5 -76.5s24.5 -44.5 42.5 -62.5s39 -32.167 63 -42.5s49.667 -15.5 77 -15.5zM1004 102c-12.667 -30 -32.666 -54.167 -59.999 -72.5s-58.333 -27.5 -93 -27.5c-20 0 -39 3.33301 -57 10
s-34.167 15.834 -48.5 27.501s-26.5 25.5 -36.5 41.5s-17 33.333 -21 52l-3 -7c-18.667 -36.667 -45.167 -66.834 -79.5 -90.501s-73.5 -35.5 -117.5 -35.5c-30 0 -58.167 5.66699 -84.5 17s-49.333 26.666 -69 45.999s-35.167 42 -46.5 68s-17 54 -17 84
s5.66699 58.167 17 84.5s26.833 49.333 46.5 69s42.667 35.167 69 46.5s54.5 17 84.5 17c44 0 83.5 -11.833 118.5 -35.5s61.167 -54.5 78.5 -92.5v128h19v-189v-79c0 -20 4 -38.667 12 -56s18.667 -32.5 32 -45.5s28.833 -23.167 46.5 -30.5s36.5 -11 56.5 -11
c30 0 57.167 7.66699 81.5 23s42.5 35.666 54.5 60.999c4 12 7.16699 21.833 9.5 29.5s3.83301 15.334 4.5 23.001s1 15.834 1 24.501v33c0 66 -12.833 128 -38.5 186s-60.834 108.833 -105.501 152.5s-96.667 78 -156 103s-123 37.5 -191 37.5s-131.833 -12.5 -191.5 -37.5
s-111.667 -59.333 -156 -103s-79.5 -94.5 -105.5 -152.5s-39 -120 -39 -186c0 -44 5.83301 -86.333 17.5 -127s28.167 -78.667 49.5 -114s47 -67.5 77 -96.5s63.333 -54 100 -75s75.834 -37.167 117.501 -48.5s85.167 -17 130.5 -17c54 0 105.5 8.16699 154.5 24.5
s94.167 39.166 135.5 68.499h32c-44 -35.333 -93.333 -62.833 -148 -82.5s-112.667 -29.5 -174 -29.5c-70.667 0 -137 13.167 -199 39.5s-116.167 62 -162.5 107s-82.833 97.667 -109.5 158s-40 124.5 -40 192.5c0 68.667 13.333 133.334 40 194.001
s63.167 113.5 109.5 158.5s100.5 80.667 162.5 107s128.333 39.5 199 39.5c70 0 136 -13.167 198 -39.5s116.167 -62 162.5 -107s82.833 -97.833 109.5 -158.5s40 -125.334 40 -194.001v-26.5c0 -7.66699 -0.333008 -14.5 -1 -20.5s-1.33398 -11.667 -2.00098 -17
s-2 -11.333 -4 -18c-2 -11.333 -5.33301 -21.666 -10 -30.999z" />
    <glyph glyph-name="A" unicode="A" horiz-adv-x="750" 
d="M515 259l-190 432l-190 -432h380zM523 239h-396l-106 -239h-21l314 715h21l315 -715h-21z" />
    <glyph glyph-name="B" unicode="B" horiz-adv-x="578" 
d="M295 19c22.667 0 44 4.33203 64 12.999s37.333 20.5 52 35.5s26.334 32.333 35.001 52s13 40.834 13 63.501s-4.33301 44 -13 64s-20.334 37.5 -35.001 52.5s-32 26.833 -52 35.5s-41.333 13 -64 13h-276v-329h276v0zM19 366.999l238 -0.000976562
c22.667 0 43.834 4.33301 63.501 13s36.834 20.5 51.501 35.5s26.334 32.333 35.001 52s13 40.834 13 63.501s-4.33301 44 -13 64s-20.334 37.5 -35.001 52.5s-31.834 26.833 -51.501 35.5s-40.834 13 -63.501 13h-238v-329zM331 363.998
c20.667 -4 40.001 -11.502 58.001 -22.502s33.667 -24.5 47 -40.5s23.666 -34 30.999 -54s11 -41.333 11 -64c0 -25.333 -4.83301 -49.166 -14.5 -71.499s-22.667 -41.666 -39 -57.999s-35.666 -29.333 -57.999 -39s-46.166 -14.5 -71.499 -14.5h-295v715h257
c25.333 0 49.166 -4.83301 71.499 -14.5s41.666 -22.834 57.999 -39.501s29.333 -36.167 39 -58.5s14.5 -46.166 14.5 -71.499c0 -37.333 -10.167 -71 -30.5 -101s-46.5 -52 -78.5 -66z" />
    <glyph glyph-name="C" unicode="C" horiz-adv-x="808" 
d="M708 293c-7.33301 -42 -21.666 -80.8281 -42.999 -116.495s-47.5 -66.5 -78.5 -92.5s-66 -46.5 -105 -61.5s-80.5 -22.5 -124.5 -22.5c-49.333 0 -95.666 9.33301 -138.999 28s-81.166 44.167 -113.499 76.5s-57.833 70.166 -76.5 113.499s-28 89.666 -28 138.999
s9.33301 95.833 28 139.5s44.167 81.667 76.5 114s70.166 57.833 113.499 76.5s89.666 28 138.999 28c44 0 85.5 -7.5 124.5 -22.5s74 -35.667 105 -62s57.167 -57.333 78.5 -93s35.666 -74.167 42.999 -115.5h-19c-7.33301 38.667 -21.166 74.834 -41.499 108.501
s-45.166 62.667 -74.499 87s-62.5 43.5 -99.5 57.5s-75.833 21 -116.5 21c-46.667 0 -90.5 -8.83301 -131.5 -26.5s-76.833 -41.834 -107.5 -72.501s-54.834 -66.667 -72.501 -108s-26.5 -85.333 -26.5 -132s8.83301 -90.5 26.5 -131.5s41.834 -76.833 72.501 -107.5
s66.5 -54.834 107.5 -72.501s84.833 -26.5 131.5 -26.5c40.667 0 79.5 7 116.5 21s70.167 33.167 99.5 57.5s54.166 53.166 74.499 86.499s34.166 69.666 41.499 108.999h19z" />
    <glyph glyph-name="D" unicode="D" horiz-adv-x="674" 
d="M217 19c46.667 0 90.667 8.83105 132 26.498s77.333 41.834 108 72.501s54.834 66.5 72.501 107.5s26.5 84.833 26.5 131.5s-8.83301 90.667 -26.5 132s-41.834 77.333 -72.501 108s-66.667 54.834 -108 72.501s-85.333 26.5 -132 26.5h-198v-677h198v0zM217 714.998
c49.333 0 95.666 -9.33496 138.999 -28.002s81.166 -44.167 113.499 -76.5s57.833 -70.333 76.5 -114s28 -90.167 28 -139.5s-9.33301 -95.666 -28 -138.999s-44.167 -81.166 -76.5 -113.499s-70.166 -57.833 -113.499 -76.5s-89.666 -28 -138.999 -28h-216h-1v715h1h216v0z
" />
    <glyph glyph-name="E" unicode="E" horiz-adv-x="550" 
d="M19 696v-329h315v-19h-315v-329h431v-19h-450v715h450v-19h-431z" />
    <glyph glyph-name="F" unicode="F" horiz-adv-x="569" 
d="M19 0h-19v715h469v-19h-450v-329h334v-19h-334v-348z" />
    <glyph glyph-name="G" unicode="G" horiz-adv-x="808" 
d="M708 293c-7.33301 -42 -21.6699 -80.8311 -43.0029 -116.498s-47.5 -66.5 -78.5 -92.5s-66 -46.5 -105 -61.5s-80.5 -22.5 -124.5 -22.5c-49.333 0 -95.666 9.33301 -138.999 28s-81.166 44.167 -113.499 76.5s-57.833 70.166 -76.5 113.499s-28 89.666 -28 138.999
s9.33301 95.833 28 139.5s44.167 81.667 76.5 114s70.166 57.833 113.499 76.5s89.666 28 138.999 28c44 0 85.5 -7.5 124.5 -22.5s74 -35.667 105 -62s57.167 -57.333 78.5 -93s35.666 -74.167 42.999 -115.5h-19c-7.33301 38.667 -21.166 74.834 -41.499 108.501
s-45.166 62.667 -74.499 87s-62.5 43.5 -99.5 57.5s-75.833 21 -116.5 21c-46.667 0 -90.5 -8.83301 -131.5 -26.5s-76.833 -41.834 -107.5 -72.501s-54.834 -66.667 -72.501 -108s-26.5 -85.333 -26.5 -132s8.83301 -90.5 26.5 -131.5s41.834 -76.833 72.501 -107.5
s66.5 -54.834 107.5 -72.501s84.833 -26.5 131.5 -26.5c39.333 0 76.833 6.33301 112.5 19s67.834 30.334 96.501 53.001s53.334 49.667 74.001 81s35.667 65.333 45 102h-308v19h331z" />
    <glyph glyph-name="H" unicode="H" horiz-adv-x="663" 
d="M563 715v-715h-19v348h-525v-348l-19 -3v718h19v-348h525v348h19z" />
    <glyph glyph-name="I" unicode="I" horiz-adv-x="385" 
d="M152 696v-677h133v-19h-285v19h133v677h-133v19h285v-19h-133z" />
    <glyph glyph-name="J" unicode="J" horiz-adv-x="457" 
d="M357 715l-0.00292969 -358.003c0 -49.333 -9.33301 -95.666 -28 -138.999s-44.167 -81.166 -76.5 -113.499s-70.166 -57.833 -113.499 -76.5s-89.666 -28 -138.999 -28v19c46.667 0 90.5 8.83301 131.5 26.5s76.833 41.834 107.5 72.501s54.834 66.5 72.501 107.5
s26.5 84.833 26.5 131.5v358h19z" />
    <glyph glyph-name="K" unicode="K" horiz-adv-x="593" 
d="M86 380l-67 -67v-313h-19v715h19v-375l375 375h28l-322 -322l393 -393h-27z" />
    <glyph glyph-name="L" unicode="L" horiz-adv-x="553" 
d="M453 19v-19h-453v715h19v-696h434z" />
    <glyph glyph-name="M" unicode="M" horiz-adv-x="785" 
d="M685 715v-715h-19v667l-314 -667h-21l-312 667v-667h-19v715h19v0l323 -691l324 691v0h19z" />
    <glyph glyph-name="N" unicode="N" horiz-adv-x="672" 
d="M572 715v-715h-20l-533 681v-681h-19v715h19v0v0v0v0l533 -682v682h20z" />
    <glyph glyph-name="O" unicode="O" horiz-adv-x="814" 
d="M357 0c-49.333 0 -95.666 9.33301 -138.999 28s-81.166 44.167 -113.499 76.5s-57.833 70.166 -76.5 113.499s-28 89.666 -28 138.999s9.33301 95.833 28 139.5s44.167 81.667 76.5 114s70.166 57.833 113.499 76.5s89.666 28 138.999 28s95.666 -9.33301 138.999 -28
s81.166 -44.167 113.499 -76.5s57.833 -70.333 76.5 -114s28 -90.167 28 -139.5s-9.33301 -95.666 -28 -138.999s-44.167 -81.166 -76.5 -113.499s-70.166 -57.833 -113.499 -76.5s-89.666 -28 -138.999 -28zM357 696c-46.667 0 -90.5 -8.83301 -131.5 -26.5
s-76.833 -41.834 -107.5 -72.501s-54.834 -66.667 -72.501 -108s-26.5 -85.333 -26.5 -132s8.83301 -90.5 26.5 -131.5s41.834 -76.833 72.501 -107.5s66.5 -54.834 107.5 -72.501s84.833 -26.5 131.5 -26.5s90.5 8.83301 131.5 26.5s76.833 41.834 107.5 72.501
s54.834 66.5 72.501 107.5s26.5 84.833 26.5 131.5s-8.83301 90.667 -26.5 132s-41.834 77.333 -72.501 108s-66.5 54.834 -107.5 72.501s-84.833 26.5 -131.5 26.5z" />
    <glyph glyph-name="P" unicode="P" horiz-adv-x="571" 
d="M19 367l269 -0.000976562c22.667 0 43.834 4.33301 63.501 13s36.834 20.5 51.501 35.5s26.334 32.333 35.001 52s13 40.834 13 63.501s-4.33301 44 -13 64s-20.334 37.5 -35.001 52.5s-31.834 26.833 -51.501 35.5s-40.834 13 -63.501 13h-269v-329zM0 -0.000976562
v714.998h288c25.333 0 49.166 -4.83301 71.499 -14.5s41.666 -22.834 57.999 -39.501s29.333 -36.167 39 -58.5s14.5 -46.166 14.5 -71.499s-4.83301 -49.166 -14.5 -71.499s-22.667 -41.666 -39 -57.999s-35.666 -29.333 -57.999 -39s-46.166 -14.5 -71.499 -14.5h-269
v-348h-19z" />
    <glyph glyph-name="Q" unicode="Q" horiz-adv-x="814" 
d="M357 19c45.333 0 87.668 8.16895 127.001 24.502s74.333 38.833 105 67.5l-122 122l14 13l122 -121c28.667 30.667 51.167 65.667 67.5 105s24.5 81.666 24.5 126.999c0 46.667 -8.83301 90.667 -26.5 132s-41.834 77.333 -72.501 108s-66.5 54.834 -107.5 72.501
s-84.833 26.5 -131.5 26.5s-90.5 -8.83301 -131.5 -26.5s-76.833 -41.834 -107.5 -72.501s-54.834 -66.667 -72.501 -108s-26.5 -85.333 -26.5 -132s8.83301 -90.5 26.5 -131.5s41.834 -76.833 72.501 -107.5s66.5 -54.834 107.5 -72.501s84.833 -26.5 131.5 -26.5z
M714.002 357.002c0 -48 -8.66504 -92.8311 -25.998 -134.498s-41.333 -78.5 -72 -110.5l98 -98l-14 -14l-98 98c-32 -30.667 -68.833 -54.667 -110.5 -72s-86.5 -26 -134.5 -26c-49.333 0 -95.666 9.33301 -138.999 28s-81.166 44.167 -113.499 76.5
s-57.833 70.166 -76.5 113.499s-28 89.666 -28 138.999s9.33301 95.833 28 139.5s44.167 81.667 76.5 114s70.166 57.833 113.499 76.5s89.666 28 138.999 28s95.666 -9.33301 138.999 -28s81.166 -44.167 113.499 -76.5s57.833 -70.333 76.5 -114s28 -90.167 28 -139.5z
" />
    <glyph glyph-name="R" unicode="R" horiz-adv-x="559" 
d="M19 367l257 -0.000976562c22.667 0 43.834 4.33301 63.501 13s37 20.5 52 35.5s26.833 32.333 35.5 52s13 40.834 13 63.501s-4.33301 44 -13 64s-20.5 37.5 -35.5 52.5s-32.333 26.833 -52 35.5s-40.834 13 -63.501 13h-257v-329zM68 347.999l391 -348.002h-27l-391 348
h-22v-348h-19v715h276c25.333 0 49.166 -4.83301 71.499 -14.5s41.666 -22.834 57.999 -39.501s29.333 -36.167 39 -58.5s14.5 -46.166 14.5 -71.499s-4.83301 -49.166 -14.5 -71.499s-22.667 -41.666 -39 -57.999s-35.666 -29.333 -57.999 -39s-46.166 -14.5 -71.499 -14.5
h-208z" />
    <glyph glyph-name="S" unicode="S" horiz-adv-x="606" 
d="M329 364c25.333 -4 48.834 -11.332 70.501 -21.999s40.334 -24 56.001 -40s28 -34.167 37 -54.5s13.5 -41.833 13.5 -64.5c0 -25.333 -5.66699 -49.166 -17 -71.499s-27 -41.666 -47 -57.999s-43.333 -29.333 -70 -39s-55.334 -14.5 -86.001 -14.5h-66
c-30 0 -58.333 4.83301 -85 14.5s-50 22.667 -70 39s-35.833 35.666 -47.5 57.999s-17.5 46.166 -17.5 71.499v4h23v-4c0 -22.667 5.16699 -43.834 15.5 -63.501s24.5 -37 42.5 -52s38.833 -26.833 62.5 -35.5s49.167 -13 76.5 -13h66c27.333 0 53 4.33301 77 13
s44.833 20.5 62.5 35.5s31.667 32.333 42 52s15.5 40.834 15.5 63.501s-5.16699 44 -15.5 64s-24.333 37.5 -42 52.5s-38.5 26.833 -62.5 35.5s-49.667 13 -77 13c-28 -1.33301 -51.5 -0.833008 -70.5 1.5s-34.5 5.16602 -46.5 8.49902c-14 3.33301 -25.667 7.33301 -35 12
c-34.667 20.667 -61.834 44 -81.501 70s-29.5 56.333 -29.5 91c0 25.333 5.83301 49.166 17.5 71.499s27.5 41.833 47.5 58.5s43.333 29.834 70 39.501s55 14.5 85 14.5h20c29.333 0 57 -4.5 83 -13.5s48.833 -21.333 68.5 -37s35.667 -34.167 48 -55.5
s19.166 -44 20.499 -68h-24c-1.33301 21.333 -7.5 41.5 -18.5 60.5s-25.167 35.5 -42.5 49.5s-37.666 25 -60.999 33s-48 12 -74 12h-20c-27.333 0 -52.833 -4.33301 -76.5 -13s-44.5 -20.5 -62.5 -35.5s-32.167 -32.5 -42.5 -52.5s-15.5 -41.333 -15.5 -64
s5.16699 -43.834 15.5 -63.501s24.5 -37 42.5 -52s38.833 -26.833 62.5 -35.5s49.167 -13 76.5 -13h32c9.33301 0 18.833 -0.166992 28.5 -0.5s18.167 -1.16602 25.5 -2.49902z" />
    <glyph glyph-name="T" unicode="T" horiz-adv-x="618" 
d="M518 696h-250v-696h-19v696h-249v19h518v-19z" />
    <glyph glyph-name="U" unicode="U" horiz-adv-x="650" 
d="M550 715l0.00195312 -440c0 -38 -7.16699 -73.667 -21.5 -107s-34 -62.5 -59 -87.5s-54.167 -44.667 -87.5 -59s-69 -21.5 -107 -21.5s-73.667 7.16699 -107 21.5s-62.5 34 -87.5 59s-44.667 54.167 -59 87.5s-21.5 69 -21.5 107v440h19v-440
c0 -35.333 6.66699 -68.5 20 -99.5s31.666 -58.167 54.999 -81.5s50.5 -41.666 81.5 -54.999s64.167 -20 99.5 -20s68.5 6.66699 99.5 20s58.167 31.666 81.5 54.999s41.666 50.5 54.999 81.5s20 64.167 20 99.5h-1v440h20z" />
    <glyph glyph-name="V" unicode="V" horiz-adv-x="699" 
d="M19 715l283 -690l278 690h19l-288 -715v0h-19v0l-292 715h19z" />
    <glyph glyph-name="W" unicode="W" horiz-adv-x="934" 
d="M834 715l-194 -715h-19l-204 680l-196 -680h-19l-202 715h19l192 -680l196 680v0h20v0l203 -680l185 680h19z" />
    <glyph glyph-name="X" unicode="X" horiz-adv-x="648" 
d="M286 357l262 -357h-24l-250 341l-250 -341h-24l262 357l-262 358h24l250 -341l250 341h24z" />
    <glyph glyph-name="Y" unicode="Y" horiz-adv-x="648" 
d="M284 354v-354h-20v354v0l-264 361h24l250 -341l250 341h24z" />
    <glyph glyph-name="Z" unicode="Z" horiz-adv-x="612" 
d="M512 696l-489 -677h489v-19h-512v19l489 677h-489v19h512v-19z" />
    <glyph glyph-name="bracketleft" unicode="[" 
 />
    <glyph glyph-name="backslash" unicode="\" horiz-adv-x="361" 
d="M0 715h19l249 -715h-19z" />
    <glyph glyph-name="bracketright" unicode="]" 
 />
    <glyph glyph-name="asciicircum" unicode="^" 
 />
    <glyph glyph-name="underscore" unicode="_" horiz-adv-x="524" 
d="M0 -18v18h402v-18h-402z" />
    <glyph glyph-name="grave" unicode="`" horiz-adv-x="215" 
d="M98 630l-98 85h23l85 -85h-10z" />
    <glyph glyph-name="a" unicode="a" horiz-adv-x="750" 
d="M515 259l-190 432l-190 -432h380zM523 239h-396l-106 -239h-21l314 715h21l315 -715h-21z" />
    <glyph glyph-name="b" unicode="b" horiz-adv-x="578" 
d="M295 19c22.667 0 44 4.33203 64 12.999s37.333 20.5 52 35.5s26.334 32.333 35.001 52s13 40.834 13 63.501s-4.33301 44 -13 64s-20.334 37.5 -35.001 52.5s-32 26.833 -52 35.5s-41.333 13 -64 13h-276v-329h276v0zM19 366.999l238 -0.000976562
c22.667 0 43.834 4.33301 63.501 13s36.834 20.5 51.501 35.5s26.334 32.333 35.001 52s13 40.834 13 63.501s-4.33301 44 -13 64s-20.334 37.5 -35.001 52.5s-31.834 26.833 -51.501 35.5s-40.834 13 -63.501 13h-238v-329zM331 363.998
c20.667 -4 40.001 -11.502 58.001 -22.502s33.667 -24.5 47 -40.5s23.666 -34 30.999 -54s11 -41.333 11 -64c0 -25.333 -4.83301 -49.166 -14.5 -71.499s-22.667 -41.666 -39 -57.999s-35.666 -29.333 -57.999 -39s-46.166 -14.5 -71.499 -14.5h-295v715h257
c25.333 0 49.166 -4.83301 71.499 -14.5s41.666 -22.834 57.999 -39.501s29.333 -36.167 39 -58.5s14.5 -46.166 14.5 -71.499c0 -37.333 -10.167 -71 -30.5 -101s-46.5 -52 -78.5 -66z" />
    <glyph glyph-name="c" unicode="c" horiz-adv-x="808" 
d="M708 293c-7.33301 -42 -21.666 -80.8281 -42.999 -116.495s-47.5 -66.5 -78.5 -92.5s-66 -46.5 -105 -61.5s-80.5 -22.5 -124.5 -22.5c-49.333 0 -95.666 9.33301 -138.999 28s-81.166 44.167 -113.499 76.5s-57.833 70.166 -76.5 113.499s-28 89.666 -28 138.999
s9.33301 95.833 28 139.5s44.167 81.667 76.5 114s70.166 57.833 113.499 76.5s89.666 28 138.999 28c44 0 85.5 -7.5 124.5 -22.5s74 -35.667 105 -62s57.167 -57.333 78.5 -93s35.666 -74.167 42.999 -115.5h-19c-7.33301 38.667 -21.166 74.834 -41.499 108.501
s-45.166 62.667 -74.499 87s-62.5 43.5 -99.5 57.5s-75.833 21 -116.5 21c-46.667 0 -90.5 -8.83301 -131.5 -26.5s-76.833 -41.834 -107.5 -72.501s-54.834 -66.667 -72.501 -108s-26.5 -85.333 -26.5 -132s8.83301 -90.5 26.5 -131.5s41.834 -76.833 72.501 -107.5
s66.5 -54.834 107.5 -72.501s84.833 -26.5 131.5 -26.5c40.667 0 79.5 7 116.5 21s70.167 33.167 99.5 57.5s54.166 53.166 74.499 86.499s34.166 69.666 41.499 108.999h19z" />
    <glyph glyph-name="d" unicode="d" horiz-adv-x="674" 
d="M217 19c46.667 0 90.667 8.83105 132 26.498s77.333 41.834 108 72.501s54.834 66.5 72.501 107.5s26.5 84.833 26.5 131.5s-8.83301 90.667 -26.5 132s-41.834 77.333 -72.501 108s-66.667 54.834 -108 72.501s-85.333 26.5 -132 26.5h-198v-677h198v0zM217 714.998
c49.333 0 95.666 -9.33496 138.999 -28.002s81.166 -44.167 113.499 -76.5s57.833 -70.333 76.5 -114s28 -90.167 28 -139.5s-9.33301 -95.666 -28 -138.999s-44.167 -81.166 -76.5 -113.499s-70.166 -57.833 -113.499 -76.5s-89.666 -28 -138.999 -28h-216h-1v715h1h216v0z
" />
    <glyph glyph-name="e" unicode="e" horiz-adv-x="550" 
d="M19 696v-329h315v-19h-315v-329h431v-19h-450v715h450v-19h-431z" />
    <glyph glyph-name="f" unicode="f" horiz-adv-x="569" 
d="M19 0h-19v715h469v-19h-450v-329h334v-19h-334v-348z" />
    <glyph glyph-name="g" unicode="g" horiz-adv-x="808" 
d="M708 293c-7.33301 -42 -21.6699 -80.8311 -43.0029 -116.498s-47.5 -66.5 -78.5 -92.5s-66 -46.5 -105 -61.5s-80.5 -22.5 -124.5 -22.5c-49.333 0 -95.666 9.33301 -138.999 28s-81.166 44.167 -113.499 76.5s-57.833 70.166 -76.5 113.499s-28 89.666 -28 138.999
s9.33301 95.833 28 139.5s44.167 81.667 76.5 114s70.166 57.833 113.499 76.5s89.666 28 138.999 28c44 0 85.5 -7.5 124.5 -22.5s74 -35.667 105 -62s57.167 -57.333 78.5 -93s35.666 -74.167 42.999 -115.5h-19c-7.33301 38.667 -21.166 74.834 -41.499 108.501
s-45.166 62.667 -74.499 87s-62.5 43.5 -99.5 57.5s-75.833 21 -116.5 21c-46.667 0 -90.5 -8.83301 -131.5 -26.5s-76.833 -41.834 -107.5 -72.501s-54.834 -66.667 -72.501 -108s-26.5 -85.333 -26.5 -132s8.83301 -90.5 26.5 -131.5s41.834 -76.833 72.501 -107.5
s66.5 -54.834 107.5 -72.501s84.833 -26.5 131.5 -26.5c39.333 0 76.833 6.33301 112.5 19s67.834 30.334 96.501 53.001s53.334 49.667 74.001 81s35.667 65.333 45 102h-308v19h331z" />
    <glyph glyph-name="h" unicode="h" horiz-adv-x="663" 
d="M563 715v-715h-19v348h-525v-348l-19 -3v718h19v-348h525v348h19z" />
    <glyph glyph-name="i" unicode="i" horiz-adv-x="385" 
d="M152 696v-677h133v-19h-285v19h133v677h-133v19h285v-19h-133z" />
    <glyph glyph-name="j" unicode="j" horiz-adv-x="457" 
d="M357 715l-0.00292969 -358.003c0 -49.333 -9.33301 -95.666 -28 -138.999s-44.167 -81.166 -76.5 -113.499s-70.166 -57.833 -113.499 -76.5s-89.666 -28 -138.999 -28v19c46.667 0 90.5 8.83301 131.5 26.5s76.833 41.834 107.5 72.501s54.834 66.5 72.501 107.5
s26.5 84.833 26.5 131.5v358h19z" />
    <glyph glyph-name="k" unicode="k" horiz-adv-x="593" 
d="M86 380l-67 -67v-313h-19v715h19v-375l375 375h28l-322 -322l393 -393h-27z" />
    <glyph glyph-name="l" unicode="l" horiz-adv-x="553" 
d="M453 19v-19h-453v715h19v-696h434z" />
    <glyph glyph-name="m" unicode="m" horiz-adv-x="785" 
d="M685 715v-715h-19v667l-314 -667h-21l-312 667v-667h-19v715h19v0l323 -691l324 691v0h19z" />
    <glyph glyph-name="n" unicode="n" horiz-adv-x="672" 
d="M572 715v-715h-20l-533 681v-681h-19v715h19v0v0v0v0l533 -682v682h20z" />
    <glyph glyph-name="o" unicode="o" horiz-adv-x="814" 
d="M357 0c-49.333 0 -95.666 9.33301 -138.999 28s-81.166 44.167 -113.499 76.5s-57.833 70.166 -76.5 113.499s-28 89.666 -28 138.999s9.33301 95.833 28 139.5s44.167 81.667 76.5 114s70.166 57.833 113.499 76.5s89.666 28 138.999 28s95.666 -9.33301 138.999 -28
s81.166 -44.167 113.499 -76.5s57.833 -70.333 76.5 -114s28 -90.167 28 -139.5s-9.33301 -95.666 -28 -138.999s-44.167 -81.166 -76.5 -113.499s-70.166 -57.833 -113.499 -76.5s-89.666 -28 -138.999 -28zM357 696c-46.667 0 -90.5 -8.83301 -131.5 -26.5
s-76.833 -41.834 -107.5 -72.501s-54.834 -66.667 -72.501 -108s-26.5 -85.333 -26.5 -132s8.83301 -90.5 26.5 -131.5s41.834 -76.833 72.501 -107.5s66.5 -54.834 107.5 -72.501s84.833 -26.5 131.5 -26.5s90.5 8.83301 131.5 26.5s76.833 41.834 107.5 72.501
s54.834 66.5 72.501 107.5s26.5 84.833 26.5 131.5s-8.83301 90.667 -26.5 132s-41.834 77.333 -72.501 108s-66.5 54.834 -107.5 72.501s-84.833 26.5 -131.5 26.5z" />
    <glyph glyph-name="p" unicode="p" horiz-adv-x="571" 
d="M19 367l269 -0.000976562c22.667 0 43.834 4.33301 63.501 13s36.834 20.5 51.501 35.5s26.334 32.333 35.001 52s13 40.834 13 63.501s-4.33301 44 -13 64s-20.334 37.5 -35.001 52.5s-31.834 26.833 -51.501 35.5s-40.834 13 -63.501 13h-269v-329zM0 -0.000976562
v714.998h288c25.333 0 49.166 -4.83301 71.499 -14.5s41.666 -22.834 57.999 -39.501s29.333 -36.167 39 -58.5s14.5 -46.166 14.5 -71.499s-4.83301 -49.166 -14.5 -71.499s-22.667 -41.666 -39 -57.999s-35.666 -29.333 -57.999 -39s-46.166 -14.5 -71.499 -14.5h-269
v-348h-19z" />
    <glyph glyph-name="q" unicode="q" horiz-adv-x="814" 
d="M357 19c45.333 0 87.668 8.16895 127.001 24.502s74.333 38.833 105 67.5l-122 122l14 13l122 -121c28.667 30.667 51.167 65.667 67.5 105s24.5 81.666 24.5 126.999c0 46.667 -8.83301 90.667 -26.5 132s-41.834 77.333 -72.501 108s-66.5 54.834 -107.5 72.501
s-84.833 26.5 -131.5 26.5s-90.5 -8.83301 -131.5 -26.5s-76.833 -41.834 -107.5 -72.501s-54.834 -66.667 -72.501 -108s-26.5 -85.333 -26.5 -132s8.83301 -90.5 26.5 -131.5s41.834 -76.833 72.501 -107.5s66.5 -54.834 107.5 -72.501s84.833 -26.5 131.5 -26.5z
M714.002 357.002c0 -48 -8.66504 -92.8311 -25.998 -134.498s-41.333 -78.5 -72 -110.5l98 -98l-14 -14l-98 98c-32 -30.667 -68.833 -54.667 -110.5 -72s-86.5 -26 -134.5 -26c-49.333 0 -95.666 9.33301 -138.999 28s-81.166 44.167 -113.499 76.5
s-57.833 70.166 -76.5 113.499s-28 89.666 -28 138.999s9.33301 95.833 28 139.5s44.167 81.667 76.5 114s70.166 57.833 113.499 76.5s89.666 28 138.999 28s95.666 -9.33301 138.999 -28s81.166 -44.167 113.499 -76.5s57.833 -70.333 76.5 -114s28 -90.167 28 -139.5z
" />
    <glyph glyph-name="r" unicode="r" horiz-adv-x="559" 
d="M19 367l257 -0.000976562c22.667 0 43.834 4.33301 63.501 13s37 20.5 52 35.5s26.833 32.333 35.5 52s13 40.834 13 63.501s-4.33301 44 -13 64s-20.5 37.5 -35.5 52.5s-32.333 26.833 -52 35.5s-40.834 13 -63.501 13h-257v-329zM68 347.999l391 -348.002h-27l-391 348
h-22v-348h-19v715h276c25.333 0 49.166 -4.83301 71.499 -14.5s41.666 -22.834 57.999 -39.501s29.333 -36.167 39 -58.5s14.5 -46.166 14.5 -71.499s-4.83301 -49.166 -14.5 -71.499s-22.667 -41.666 -39 -57.999s-35.666 -29.333 -57.999 -39s-46.166 -14.5 -71.499 -14.5
h-208z" />
    <glyph glyph-name="s" unicode="s" horiz-adv-x="606" 
d="M329 364c25.333 -4 48.834 -11.332 70.501 -21.999s40.334 -24 56.001 -40s28 -34.167 37 -54.5s13.5 -41.833 13.5 -64.5c0 -25.333 -5.66699 -49.166 -17 -71.499s-27 -41.666 -47 -57.999s-43.333 -29.333 -70 -39s-55.334 -14.5 -86.001 -14.5h-66
c-30 0 -58.333 4.83301 -85 14.5s-50 22.667 -70 39s-35.833 35.666 -47.5 57.999s-17.5 46.166 -17.5 71.499v4h23v-4c0 -22.667 5.16699 -43.834 15.5 -63.501s24.5 -37 42.5 -52s38.833 -26.833 62.5 -35.5s49.167 -13 76.5 -13h66c27.333 0 53 4.33301 77 13
s44.833 20.5 62.5 35.5s31.667 32.333 42 52s15.5 40.834 15.5 63.501s-5.16699 44 -15.5 64s-24.333 37.5 -42 52.5s-38.5 26.833 -62.5 35.5s-49.667 13 -77 13c-28 -1.33301 -51.5 -0.833008 -70.5 1.5s-34.5 5.16602 -46.5 8.49902c-14 3.33301 -25.667 7.33301 -35 12
c-34.667 20.667 -61.834 44 -81.501 70s-29.5 56.333 -29.5 91c0 25.333 5.83301 49.166 17.5 71.499s27.5 41.833 47.5 58.5s43.333 29.834 70 39.501s55 14.5 85 14.5h20c29.333 0 57 -4.5 83 -13.5s48.833 -21.333 68.5 -37s35.667 -34.167 48 -55.5
s19.166 -44 20.499 -68h-24c-1.33301 21.333 -7.5 41.5 -18.5 60.5s-25.167 35.5 -42.5 49.5s-37.666 25 -60.999 33s-48 12 -74 12h-20c-27.333 0 -52.833 -4.33301 -76.5 -13s-44.5 -20.5 -62.5 -35.5s-32.167 -32.5 -42.5 -52.5s-15.5 -41.333 -15.5 -64
s5.16699 -43.834 15.5 -63.501s24.5 -37 42.5 -52s38.833 -26.833 62.5 -35.5s49.167 -13 76.5 -13h32c9.33301 0 18.833 -0.166992 28.5 -0.5s18.167 -1.16602 25.5 -2.49902z" />
    <glyph glyph-name="t" unicode="t" horiz-adv-x="618" 
d="M518 696h-250v-696h-19v696h-249v19h518v-19z" />
    <glyph glyph-name="u" unicode="u" horiz-adv-x="650" 
d="M550 715l0.00195312 -440c0 -38 -7.16699 -73.667 -21.5 -107s-34 -62.5 -59 -87.5s-54.167 -44.667 -87.5 -59s-69 -21.5 -107 -21.5s-73.667 7.16699 -107 21.5s-62.5 34 -87.5 59s-44.667 54.167 -59 87.5s-21.5 69 -21.5 107v440h19v-440
c0 -35.333 6.66699 -68.5 20 -99.5s31.666 -58.167 54.999 -81.5s50.5 -41.666 81.5 -54.999s64.167 -20 99.5 -20s68.5 6.66699 99.5 20s58.167 31.666 81.5 54.999s41.666 50.5 54.999 81.5s20 64.167 20 99.5h-1v440h20z" />
    <glyph glyph-name="v" unicode="v" horiz-adv-x="699" 
d="M19 715l283 -690l278 690h19l-288 -715v0h-19v0l-292 715h19z" />
    <glyph glyph-name="w" unicode="w" horiz-adv-x="934" 
d="M834 715l-194 -715h-19l-204 680l-196 -680h-19l-202 715h19l192 -680l196 680v0h20v0l203 -680l185 680h19z" />
    <glyph glyph-name="x" unicode="x" horiz-adv-x="648" 
d="M286 357l262 -357h-24l-250 341l-250 -341h-24l262 357l-262 358h24l250 -341l250 341h24z" />
    <glyph glyph-name="y" unicode="y" horiz-adv-x="648" 
d="M284 354v-354h-20v354v0l-264 361h24l250 -341l250 341h24z" />
    <glyph glyph-name="z" unicode="z" horiz-adv-x="612" 
d="M512 696l-489 -677h489v-19h-512v19l489 677h-489v19h512v-19z" />
    <glyph glyph-name="asciitilde" unicode="~" horiz-adv-x="241" 
d="M128 687c-8.66699 -14.667 -19.3291 -22 -31.9961 -22c-5.33301 0 -10.333 0.833008 -15 2.5s-9.33398 3.83398 -14.001 6.50098s-10 5.16699 -16 7.5s-12.667 3.5 -20 3.5c-6.66699 0 -11.834 -1.83301 -15.501 -5.5s-6.83398 -7.83398 -9.50098 -12.501l-6 10
c8 14 19 21 33 21c4.66699 0 9.66699 -0.833008 15 -2.5s10.666 -3.83398 15.999 -6.50098c15.333 -7.33301 26 -11 32 -11s11 1.83301 15 5.5s7.66699 7.83398 11 12.501z" />
    <glyph glyph-name="exclamdown" unicode="&#xa1;" horiz-adv-x="151" 
d="M14 606h19v-605h-19v605zM23 676c-12.667 0 -19 6.33301 -19 19c0 5.33301 1.83301 10 5.5 14s8.16699 6 13.5 6s10 -2 14 -6s6 -8.66699 6 -14s-2 -9.83301 -6 -13.5s-8.66699 -5.5 -14 -5.5z" />
    <glyph glyph-name="brokenbar" unicode="&#xa6;" horiz-adv-x="1000" 
 />
    <glyph glyph-name="dieresis" unicode="&#xa8;" horiz-adv-x="318" 
d="M174 699c7.33301 0 13.5 -2.66699 18.5 -8s7.5 -11.666 7.5 -18.999s-2.5 -13.5 -7.5 -18.5s-11.167 -7.5 -18.5 -7.5s-13.666 2.5 -18.999 7.5s-8 11.167 -8 18.5s2.66699 13.666 8 18.999s11.666 8 18.999 8zM27 699c7.33301 0 13.5 -2.66699 18.5 -8
s7.5 -11.666 7.5 -18.999s-2.5 -13.5 -7.5 -18.5s-11.167 -7.5 -18.5 -7.5s-13.666 2.5 -18.999 7.5s-8 11.167 -8 18.5s2.66699 13.666 8 18.999s11.666 8 18.999 8z" />
    <glyph glyph-name="acute" unicode="&#xb4;" horiz-adv-x="213" 
d="M108 715l-98 -85h-10l85 85h23z" />
    <glyph glyph-name="questiondown" unicode="&#xbf;" horiz-adv-x="483" 
d="M208 0c-28.667 0 -55.6689 5.66797 -81.002 17.001s-47.333 26.666 -66 45.999s-33.5 42.166 -44.5 68.499s-16.5 54.166 -16.5 83.499c0 30 5.5 58.167 16.5 84.5s26.167 49.166 45.5 68.499l77 78c0.666992 0.666992 3.83398 3.5 9.50098 8.5s11.834 13.333 18.501 25
s12.667 27.167 18 46.5s8 43.666 8 72.999h19c0 -31.333 -2.83301 -57.5 -8.5 -78.5s-12 -37.667 -19 -50s-13.667 -21.333 -20 -27s-9.83301 -8.83398 -10.5 -9.50098l-92 -94c-13.333 -17.333 -24 -36.666 -32 -57.999s-12 -43.666 -12 -66.999
c0 -27.333 5 -52.833 15 -76.5s23.5 -44.334 40.5 -62.001s37.167 -31.667 60.5 -42s48 -15.5 74 -15.5s50.667 5.16699 74 15.5s43.5 24.333 60.5 42s30.5 38.334 40.5 62.001s15 49.167 15 76.5h18c0 -29.333 -5.5 -57.166 -16.5 -83.499s-25.833 -49.166 -44.5 -68.499
s-40.667 -34.666 -66 -45.999s-52.333 -17 -81 -17zM199.998 676.001c-5.33301 0 -10 1.83301 -14 5.5s-6 8.16699 -6 13.5s2 10 6 14s8.66699 6 14 6s10 -2 14 -6s6 -8.66699 6 -14s-2 -9.83301 -6 -13.5s-8.66699 -5.5 -14 -5.5z" />
    <glyph glyph-name="Agrave" unicode="&#xc0;" horiz-adv-x="739" 
d="M319 765l-98 85h23l85 -85h-10zM515 259l-190 432l-190 -432h380zM523 239h-396l-106 -239h-21l314 715h21l315 -715h-21z" />
    <glyph glyph-name="Aacute" unicode="&#xc1;" horiz-adv-x="739" 
d="M434 850l-99 -85h-10l85 85h24zM515 259l-190 432l-190 -432h380zM523 239h-396l-106 -239h-21l314 715h21l315 -715h-21z" />
    <glyph glyph-name="Acircumflex" unicode="&#xc2;" horiz-adv-x="739" 
d="M323 844l-91 -79h-10l85 85h32l85 -85h-10zM515 259l-190 432l-190 -432h380zM523 239h-396l-106 -239h-21l314 715h21l315 -715h-21z" />
    <glyph glyph-name="Atilde" unicode="&#xc3;" horiz-adv-x="739" 
d="M384 787c-10 -14.667 -21 -22 -33 -22c-5.33301 0 -10.333 1 -15 3s-9 4 -13 6c-5.33301 3.33301 -11 6 -17 8s-12.667 3 -20 3c-6 0 -11 -1.83301 -15 -5.5s-7.33301 -7.5 -10 -11.5l-6 9c8 14 19 21 33 21c5.33301 0 10.5 -0.833008 15.5 -2.5
s10.167 -3.83398 15.5 -6.50098c18 -7.33301 28.667 -11 32 -11c6 0 11 1.83301 15 5.5s7.66699 7.83398 11 12.501zM515 259l-190 432l-190 -432h380zM523 239h-396l-106 -239h-21l314 715h21l315 -715h-21z" />
    <glyph glyph-name="Adieresis" unicode="&#xc4;" horiz-adv-x="739" 
d="M396 818c7.33301 0 13.666 -2.5 18.999 -7.5s8 -11.167 8 -18.5s-2.66699 -13.666 -8 -18.999s-11.666 -8 -18.999 -8s-13.666 2.66699 -18.999 8s-8 11.666 -8 18.999s2.66699 13.5 8 18.5s11.666 7.5 18.999 7.5zM249 818c7.33301 0 13.666 -2.5 18.999 -7.5
s8 -11.167 8 -18.5s-2.66699 -13.666 -8 -18.999s-11.666 -8 -18.999 -8s-13.666 2.66699 -18.999 8s-8 11.666 -8 18.999s2.66699 13.5 8 18.5s11.666 7.5 18.999 7.5zM515 259l-190 432l-190 -432h380zM523 239h-396l-106 -239h-21l314 715h21l315 -715h-21z" />
    <glyph glyph-name="Aring" unicode="&#xc5;" 
 />
    <glyph glyph-name="AE" unicode="&#xc6;" 
 />
    <glyph glyph-name="Ccedilla" unicode="&#xc7;" horiz-adv-x="785" 
d="M357 19c40.667 0 79.5049 7.00195 116.505 21.002s70.167 33.167 99.5 57.5s54.166 53.166 74.499 86.499s34.166 69.666 41.499 108.999h19c-7.33301 -41.333 -21.5 -79.666 -42.5 -114.999s-46.833 -66.166 -77.5 -92.499s-65.334 -47 -104.001 -62
s-79.667 -22.833 -123 -23.5v-28c9.33301 6.66699 20.666 10 33.999 10c18.667 0 34.334 -6.33301 47.001 -19s19 -28.334 19 -47.001c0 -18 -6.33301 -33.5 -19 -46.5s-28.334 -19.5 -47.001 -19.5c-15.333 0 -29 5 -41 15s-19.667 22.333 -23 37h20
c3.33301 -9.33301 8.83301 -17 16.5 -23s16.834 -9 27.501 -9c13.333 0 24.5 4.5 33.5 13.5s13.5 19.833 13.5 32.5c0 13.333 -4.5 24.5 -13.5 33.5s-20.167 13.5 -33.5 13.5c-14 0 -25.333 -5 -34 -15h-24v52c-47.333 2.66699 -91.333 13.834 -132 33.501
s-76.334 45.5 -107.001 77.5s-54.667 69.167 -72 111.5s-26 87.166 -26 134.499c0 49.333 9.33301 95.666 28 138.999s44.167 81.333 76.5 114s70.166 58.334 113.499 77.001s89.666 28 138.999 28c44 0 85.5 -7.5 124.5 -22.5s74 -35.667 105 -62s57.167 -57.333 78.5 -93
s35.666 -74.167 42.999 -115.5h-19c-7.33301 38.667 -21.166 74.834 -41.499 108.501s-45.166 62.667 -74.499 87s-62.5 43.5 -99.5 57.5s-75.833 21 -116.5 21c-46.667 0 -90.5 -8.83301 -131.5 -26.5s-76.833 -41.834 -107.5 -72.501s-54.834 -66.667 -72.501 -108
s-26.5 -85.333 -26.5 -132s8.83301 -90.5 26.5 -131.5s41.834 -76.833 72.501 -107.5s66.5 -54.834 107.5 -72.501s84.833 -26.5 131.5 -26.5z" />
    <glyph glyph-name="Egrave" unicode="&#xc8;" horiz-adv-x="486" 
d="M216 765l-98 85h23l85 -85h-10zM19 696v-329h315v-19h-315v-329h431v-19h-450v715h450v-19h-431z" />
    <glyph glyph-name="Eacute" unicode="&#xc9;" horiz-adv-x="486" 
d="M305 850l-98 -85h-10l85 85h23zM19 696v-329h315v-19h-315v-329h431v-19h-450v715h450v-19h-431z" />
    <glyph glyph-name="Ecircumflex" unicode="&#xca;" horiz-adv-x="486" 
d="M216 844l-91 -79h-10l85 85h32l85 -85h-10zM19 696v-329h315v-19h-315v-329h431v-19h-450v715h450v-19h-431z" />
    <glyph glyph-name="Edieresis" unicode="&#xcb;" horiz-adv-x="486" 
d="M295 818c7.33301 0 13.666 -2.5 18.999 -7.5s8 -11.167 8 -18.5s-2.66699 -13.666 -8 -18.999s-11.666 -8 -18.999 -8s-13.666 2.66699 -18.999 8s-8 11.666 -8 18.999s2.66699 13.5 8 18.5s11.666 7.5 18.999 7.5zM148 818c7.33301 0 13.666 -2.5 18.999 -7.5
s8 -11.167 8 -18.5s-2.66699 -13.666 -8 -18.999s-11.666 -8 -18.999 -8s-13.666 2.66699 -18.999 8s-8 11.666 -8 18.999s2.66699 13.5 8 18.5s11.666 7.5 18.999 7.5zM19 696v-329h315v-19h-315v-329h431v-19h-450v715h450v-19h-431z" />
    <glyph glyph-name="Igrave" unicode="&#xcc;" horiz-adv-x="372" 
d="M176 765l-98 85h23l85 -85h-10zM152 696v-677h133v-19h-285v19h133v677h-133v19h285v-19h-133z" />
    <glyph glyph-name="Iacute" unicode="&#xcd;" horiz-adv-x="372" 
d="M246 850l-98 -85h-10l85 85h23zM152 696v-677h133v-19h-285v19h133v677h-133v19h285v-19h-133z" />
    <glyph glyph-name="Icircumflex" unicode="&#xce;" horiz-adv-x="372" 
d="M142 844l-90 -79h-11l85 85h32l85 -85h-10zM152 696v-677h133v-19h-285v19h133v677h-133v19h285v-19h-133z" />
    <glyph glyph-name="Idieresis" unicode="&#xcf;" horiz-adv-x="372" 
d="M214 818c7.33301 0 13.666 -2.5 18.999 -7.5s8 -11.167 8 -18.5s-2.66699 -13.666 -8 -18.999s-11.666 -8 -18.999 -8s-13.666 2.66699 -18.999 8s-8 11.666 -8 18.999s2.66699 13.5 8 18.5s11.666 7.5 18.999 7.5zM67 818c7.33301 0 13.666 -2.5 18.999 -7.5
s8 -11.167 8 -18.5s-2.66699 -13.666 -8 -18.999s-11.666 -8 -18.999 -8s-13.666 2.66699 -18.999 8s-8 11.666 -8 18.999s2.66699 13.5 8 18.5s11.666 7.5 18.999 7.5zM152 696v-677h133v-19h-285v19h133v677h-133v19h285v-19h-133z" />
    <glyph glyph-name="Eth" unicode="&#xd0;" 
 />
    <glyph glyph-name="Ntilde" unicode="&#xd1;" horiz-adv-x="682" 
d="M337 787c-10 -14.667 -21 -22 -33 -22c-5.33301 0 -10.333 1 -15 3s-9 4 -13 6c-5.33301 3.33301 -11 6 -17 8s-12.667 3 -20 3c-6 0 -11 -1.83301 -15 -5.5s-7.33301 -7.5 -10 -11.5l-6 9c8 14 19 21 33 21c5.33301 0 10.5 -0.833008 15.5 -2.5
s10.167 -3.83398 15.5 -6.50098c18 -7.33301 28.667 -11 32 -11c6 0 11 1.83301 15 5.5s7.66699 7.83398 11 12.501zM572 715v-715h-20l-533 681v-681h-19v715h19l533 -682v682h20z" />
    <glyph glyph-name="Ograve" unicode="&#xd2;" horiz-adv-x="814" 
d="M389 765l-98 85h23l85 -85h-10zM357 696c46.667 0 90.5 -8.83301 131.5 -26.5s76.833 -41.834 107.5 -72.501s54.834 -66.667 72.501 -108s26.5 -85.333 26.5 -132s-8.83301 -90.5 -26.5 -131.5s-41.834 -76.833 -72.501 -107.5s-66.5 -54.834 -107.5 -72.501
s-84.833 -26.5 -131.5 -26.5s-90.5 8.83301 -131.5 26.5s-76.833 41.834 -107.5 72.501s-54.834 66.5 -72.501 107.5s-26.5 84.833 -26.5 131.5s8.83301 90.667 26.5 132s41.834 77.333 72.501 108s66.5 54.834 107.5 72.501s84.833 26.5 131.5 26.5zM357 0
c49.333 0 95.666 9.33301 138.999 28s81.166 44.167 113.499 76.5s57.833 70.166 76.5 113.499s28 89.666 28 138.999s-9.33301 95.833 -28 139.5s-44.167 81.667 -76.5 114s-70.166 57.833 -113.499 76.5s-89.666 28 -138.999 28s-95.666 -9.33301 -138.999 -28
s-81.166 -44.167 -113.499 -76.5s-57.833 -70.333 -76.5 -114s-28 -90.167 -28 -139.5s9.33301 -95.666 28 -138.999s44.167 -81.166 76.5 -113.499s70.166 -57.833 113.499 -76.5s89.666 -28 138.999 -28z" />
    <glyph glyph-name="Oacute" unicode="&#xd3;" horiz-adv-x="814" 
d="M455 850l-98 -85h-10l85 85h23zM357 696c46.667 0 90.5 -8.83301 131.5 -26.5s76.833 -41.834 107.5 -72.501s54.834 -66.667 72.501 -108s26.5 -85.333 26.5 -132s-8.83301 -90.5 -26.5 -131.5s-41.834 -76.833 -72.501 -107.5s-66.5 -54.834 -107.5 -72.501
s-84.833 -26.5 -131.5 -26.5s-90.5 8.83301 -131.5 26.5s-76.833 41.834 -107.5 72.501s-54.834 66.5 -72.501 107.5s-26.5 84.833 -26.5 131.5s8.83301 90.667 26.5 132s41.834 77.333 72.501 108s66.5 54.834 107.5 72.501s84.833 26.5 131.5 26.5zM357 0
c49.333 0 95.666 9.33301 138.999 28s81.166 44.167 113.499 76.5s57.833 70.166 76.5 113.499s28 89.666 28 138.999s-9.33301 95.833 -28 139.5s-44.167 81.667 -76.5 114s-70.166 57.833 -113.499 76.5s-89.666 28 -138.999 28s-95.666 -9.33301 -138.999 -28
s-81.166 -44.167 -113.499 -76.5s-57.833 -70.333 -76.5 -114s-28 -90.167 -28 -139.5s9.33301 -95.666 28 -138.999s44.167 -81.166 76.5 -113.499s70.166 -57.833 113.499 -76.5s89.666 -28 138.999 -28z" />
    <glyph glyph-name="Ocircumflex" unicode="&#xd4;" horiz-adv-x="814" 
d="M357 844l-90 -79h-11l85 85h32l85 -85h-10zM357 696c46.667 0 90.5 -8.83301 131.5 -26.5s76.833 -41.834 107.5 -72.501s54.834 -66.667 72.501 -108s26.5 -85.333 26.5 -132s-8.83301 -90.5 -26.5 -131.5s-41.834 -76.833 -72.501 -107.5s-66.5 -54.834 -107.5 -72.501
s-84.833 -26.5 -131.5 -26.5s-90.5 8.83301 -131.5 26.5s-76.833 41.834 -107.5 72.501s-54.834 66.5 -72.501 107.5s-26.5 84.833 -26.5 131.5s8.83301 90.667 26.5 132s41.834 77.333 72.501 108s66.5 54.834 107.5 72.501s84.833 26.5 131.5 26.5zM357 0
c49.333 0 95.666 9.33301 138.999 28s81.166 44.167 113.499 76.5s57.833 70.166 76.5 113.499s28 89.666 28 138.999s-9.33301 95.833 -28 139.5s-44.167 81.667 -76.5 114s-70.166 57.833 -113.499 76.5s-89.666 28 -138.999 28s-95.666 -9.33301 -138.999 -28
s-81.166 -44.167 -113.499 -76.5s-57.833 -70.333 -76.5 -114s-28 -90.167 -28 -139.5s9.33301 -95.666 28 -138.999s44.167 -81.166 76.5 -113.499s70.166 -57.833 113.499 -76.5s89.666 -28 138.999 -28z" />
    <glyph glyph-name="Otilde" unicode="&#xd5;" horiz-adv-x="814" 
d="M420 787c-10 -14.667 -21 -22 -33 -22c-5.33301 0 -10.333 1 -15 3s-9 4 -13 6c-5.33301 3.33301 -11 6 -17 8s-12.667 3 -20 3c-6 0 -11 -1.83301 -15 -5.5s-7.33301 -7.5 -10 -11.5l-6 9c8 14 19 21 33 21c5.33301 0 10.5 -0.833008 15.5 -2.5
s10.167 -3.83398 15.5 -6.50098c18 -7.33301 28.667 -11 32 -11c6 0 11 1.83301 15 5.5s7.66699 7.83398 11 12.501zM357 696c46.667 0 90.5 -8.83301 131.5 -26.5s76.833 -41.834 107.5 -72.501s54.834 -66.667 72.501 -108s26.5 -85.333 26.5 -132
s-8.83301 -90.5 -26.5 -131.5s-41.834 -76.833 -72.501 -107.5s-66.5 -54.834 -107.5 -72.501s-84.833 -26.5 -131.5 -26.5s-90.5 8.83301 -131.5 26.5s-76.833 41.834 -107.5 72.501s-54.834 66.5 -72.501 107.5s-26.5 84.833 -26.5 131.5s8.83301 90.667 26.5 132
s41.834 77.333 72.501 108s66.5 54.834 107.5 72.501s84.833 26.5 131.5 26.5zM357 0c49.333 0 95.666 9.33301 138.999 28s81.166 44.167 113.499 76.5s57.833 70.166 76.5 113.499s28 89.666 28 138.999s-9.33301 95.833 -28 139.5s-44.167 81.667 -76.5 114
s-70.166 57.833 -113.499 76.5s-89.666 28 -138.999 28s-95.666 -9.33301 -138.999 -28s-81.166 -44.167 -113.499 -76.5s-57.833 -70.333 -76.5 -114s-28 -90.167 -28 -139.5s9.33301 -95.666 28 -138.999s44.167 -81.166 76.5 -113.499s70.166 -57.833 113.499 -76.5
s89.666 -28 138.999 -28z" />
    <glyph glyph-name="Odieresis" unicode="&#xd6;" horiz-adv-x="814" 
d="M428 818c7.33301 0 13.666 -2.5 18.999 -7.5s8 -11.167 8 -18.5s-2.66699 -13.666 -8 -18.999s-11.666 -8 -18.999 -8s-13.666 2.66699 -18.999 8s-8 11.666 -8 18.999s2.66699 13.5 8 18.5s11.666 7.5 18.999 7.5zM281 818c7.33301 0 13.666 -2.5 18.999 -7.5
s8 -11.167 8 -18.5s-2.66699 -13.666 -8 -18.999s-11.666 -8 -18.999 -8s-13.666 2.66699 -18.999 8s-8 11.666 -8 18.999s2.66699 13.5 8 18.5s11.666 7.5 18.999 7.5zM357 696c46.667 0 90.5 -8.83301 131.5 -26.5s76.833 -41.834 107.5 -72.501
s54.834 -66.667 72.501 -108s26.5 -85.333 26.5 -132s-8.83301 -90.5 -26.5 -131.5s-41.834 -76.833 -72.501 -107.5s-66.5 -54.834 -107.5 -72.501s-84.833 -26.5 -131.5 -26.5s-90.5 8.83301 -131.5 26.5s-76.833 41.834 -107.5 72.501s-54.834 66.5 -72.501 107.5
s-26.5 84.833 -26.5 131.5s8.83301 90.667 26.5 132s41.834 77.333 72.501 108s66.5 54.834 107.5 72.501s84.833 26.5 131.5 26.5zM357 0c49.333 0 95.666 9.33301 138.999 28s81.166 44.167 113.499 76.5s57.833 70.166 76.5 113.499s28 89.666 28 138.999
s-9.33301 95.833 -28 139.5s-44.167 81.667 -76.5 114s-70.166 57.833 -113.499 76.5s-89.666 28 -138.999 28s-95.666 -9.33301 -138.999 -28s-81.166 -44.167 -113.499 -76.5s-57.833 -70.333 -76.5 -114s-28 -90.167 -28 -139.5s9.33301 -95.666 28 -138.999
s44.167 -81.166 76.5 -113.499s70.166 -57.833 113.499 -76.5s89.666 -28 138.999 -28z" />
    <glyph glyph-name="multiply" unicode="&#xd7;" 
 />
    <glyph glyph-name="Oslash" unicode="&#xd8;" 
 />
    <glyph glyph-name="Ugrave" unicode="&#xd9;" horiz-adv-x="662" 
d="M298 765l-98 85h23l85 -85h-10zM550 715l0.00195312 -440c0 -38 -7.16699 -73.667 -21.5 -107s-34 -62.5 -59 -87.5s-54.167 -44.667 -87.5 -59s-69 -21.5 -107 -21.5s-73.667 7.16699 -107 21.5s-62.5 34 -87.5 59s-44.667 54.167 -59 87.5s-21.5 69 -21.5 107v440h19
v-440c0 -35.333 6.66699 -68.5 20 -99.5s31.666 -58.167 54.999 -81.5s50.5 -41.666 81.5 -54.999s64.167 -20 99.5 -20s68.5 6.66699 99.5 20s58.167 31.666 81.5 54.999s41.666 50.5 54.999 81.5s20 64.167 20 99.5h-1v440h20z" />
    <glyph glyph-name="Uacute" unicode="&#xda;" horiz-adv-x="662" 
d="M358 850l-98 -85h-10l85 85h23zM550 715l0.00195312 -440c0 -38 -7.16699 -73.667 -21.5 -107s-34 -62.5 -59 -87.5s-54.167 -44.667 -87.5 -59s-69 -21.5 -107 -21.5s-73.667 7.16699 -107 21.5s-62.5 34 -87.5 59s-44.667 54.167 -59 87.5s-21.5 69 -21.5 107v440h19
v-440c0 -35.333 6.66699 -68.5 20 -99.5s31.666 -58.167 54.999 -81.5s50.5 -41.666 81.5 -54.999s64.167 -20 99.5 -20s68.5 6.66699 99.5 20s58.167 31.666 81.5 54.999s41.666 50.5 54.999 81.5s20 64.167 20 99.5h-1v440h20z" />
    <glyph glyph-name="Ucircumflex" unicode="&#xdb;" horiz-adv-x="662" 
d="M270 844l-90 -79h-11l85 85h32l85 -85h-10zM550 715l0.00195312 -440c0 -38 -7.16699 -73.667 -21.5 -107s-34 -62.5 -59 -87.5s-54.167 -44.667 -87.5 -59s-69 -21.5 -107 -21.5s-73.667 7.16699 -107 21.5s-62.5 34 -87.5 59s-44.667 54.167 -59 87.5
s-21.5 69 -21.5 107v440h19v-440c0 -35.333 6.66699 -68.5 20 -99.5s31.666 -58.167 54.999 -81.5s50.5 -41.666 81.5 -54.999s64.167 -20 99.5 -20s68.5 6.66699 99.5 20s58.167 31.666 81.5 54.999s41.666 50.5 54.999 81.5s20 64.167 20 99.5h-1v440h20z" />
    <glyph glyph-name="Udieresis" unicode="&#xdc;" horiz-adv-x="662" 
d="M333 818c7.33301 0 13.666 -2.5 18.999 -7.5s8 -11.167 8 -18.5s-2.66699 -13.666 -8 -18.999s-11.666 -8 -18.999 -8s-13.666 2.66699 -18.999 8s-8 11.666 -8 18.999s2.66699 13.5 8 18.5s11.666 7.5 18.999 7.5zM186 818c7.33301 0 13.666 -2.5 18.999 -7.5
s8 -11.167 8 -18.5s-2.66699 -13.666 -8 -18.999s-11.666 -8 -18.999 -8s-13.666 2.66699 -18.999 8s-8 11.666 -8 18.999s2.66699 13.5 8 18.5s11.666 7.5 18.999 7.5zM550 715l0.00195312 -440c0 -38 -7.16699 -73.667 -21.5 -107s-34 -62.5 -59 -87.5
s-54.167 -44.667 -87.5 -59s-69 -21.5 -107 -21.5s-73.667 7.16699 -107 21.5s-62.5 34 -87.5 59s-44.667 54.167 -59 87.5s-21.5 69 -21.5 107v440h19v-440c0 -35.333 6.66699 -68.5 20 -99.5s31.666 -58.167 54.999 -81.5s50.5 -41.666 81.5 -54.999s64.167 -20 99.5 -20
s68.5 6.66699 99.5 20s58.167 31.666 81.5 54.999s41.666 50.5 54.999 81.5s20 64.167 20 99.5h-1v440h20z" />
    <glyph glyph-name="Yacute" unicode="&#xdd;" 
 />
    <glyph glyph-name="Thorn" unicode="&#xde;" 
 />
    <glyph glyph-name="germandbls" unicode="&#xdf;" 
 />
    <glyph glyph-name="agrave" unicode="&#xe0;" horiz-adv-x="739" 
d="M319 765l-98 85h23l85 -85h-10zM515 259l-190 432l-190 -432h380zM523 239h-396l-106 -239h-21l314 715h21l315 -715h-21z" />
    <glyph glyph-name="aacute" unicode="&#xe1;" horiz-adv-x="739" 
d="M434 850l-99 -85h-10l85 85h24zM515 259l-190 432l-190 -432h380zM523 239h-396l-106 -239h-21l314 715h21l315 -715h-21z" />
    <glyph glyph-name="acircumflex" unicode="&#xe2;" horiz-adv-x="739" 
d="M323 844l-91 -79h-10l85 85h32l85 -85h-10zM515 259l-190 432l-190 -432h380zM523 239h-396l-106 -239h-21l314 715h21l315 -715h-21z" />
    <glyph glyph-name="atilde" unicode="&#xe3;" horiz-adv-x="739" 
d="M384 787c-10 -14.667 -21 -22 -33 -22c-5.33301 0 -10.333 1 -15 3s-9 4 -13 6c-5.33301 3.33301 -11 6 -17 8s-12.667 3 -20 3c-6 0 -11 -1.83301 -15 -5.5s-7.33301 -7.5 -10 -11.5l-6 9c8 14 19 21 33 21c5.33301 0 10.5 -0.833008 15.5 -2.5
s10.167 -3.83398 15.5 -6.50098c18 -7.33301 28.667 -11 32 -11c6 0 11 1.83301 15 5.5s7.66699 7.83398 11 12.501zM515 259l-190 432l-190 -432h380zM523 239h-396l-106 -239h-21l314 715h21l315 -715h-21z" />
    <glyph glyph-name="adieresis" unicode="&#xe4;" horiz-adv-x="739" 
d="M396 818c7.33301 0 13.666 -2.5 18.999 -7.5s8 -11.167 8 -18.5s-2.66699 -13.666 -8 -18.999s-11.666 -8 -18.999 -8s-13.666 2.66699 -18.999 8s-8 11.666 -8 18.999s2.66699 13.5 8 18.5s11.666 7.5 18.999 7.5zM249 818c7.33301 0 13.666 -2.5 18.999 -7.5
s8 -11.167 8 -18.5s-2.66699 -13.666 -8 -18.999s-11.666 -8 -18.999 -8s-13.666 2.66699 -18.999 8s-8 11.666 -8 18.999s2.66699 13.5 8 18.5s11.666 7.5 18.999 7.5zM515 259l-190 432l-190 -432h380zM523 239h-396l-106 -239h-21l314 715h21l315 -715h-21z" />
    <glyph glyph-name="aring" unicode="&#xe5;" 
 />
    <glyph glyph-name="ae" unicode="&#xe6;" 
 />
    <glyph glyph-name="ccedilla" unicode="&#xe7;" horiz-adv-x="785" 
d="M357 19c40.667 0 79.5049 7.00195 116.505 21.002s70.167 33.167 99.5 57.5s54.166 53.166 74.499 86.499s34.166 69.666 41.499 108.999h19c-7.33301 -41.333 -21.5 -79.666 -42.5 -114.999s-46.833 -66.166 -77.5 -92.499s-65.334 -47 -104.001 -62
s-79.667 -22.833 -123 -23.5v-28c9.33301 6.66699 20.666 10 33.999 10c18.667 0 34.334 -6.33301 47.001 -19s19 -28.334 19 -47.001c0 -18 -6.33301 -33.5 -19 -46.5s-28.334 -19.5 -47.001 -19.5c-15.333 0 -29 5 -41 15s-19.667 22.333 -23 37h20
c3.33301 -9.33301 8.83301 -17 16.5 -23s16.834 -9 27.501 -9c13.333 0 24.5 4.5 33.5 13.5s13.5 19.833 13.5 32.5c0 13.333 -4.5 24.5 -13.5 33.5s-20.167 13.5 -33.5 13.5c-14 0 -25.333 -5 -34 -15h-24v52c-47.333 2.66699 -91.333 13.834 -132 33.501
s-76.334 45.5 -107.001 77.5s-54.667 69.167 -72 111.5s-26 87.166 -26 134.499c0 49.333 9.33301 95.666 28 138.999s44.167 81.333 76.5 114s70.166 58.334 113.499 77.001s89.666 28 138.999 28c44 0 85.5 -7.5 124.5 -22.5s74 -35.667 105 -62s57.167 -57.333 78.5 -93
s35.666 -74.167 42.999 -115.5h-19c-7.33301 38.667 -21.166 74.834 -41.499 108.501s-45.166 62.667 -74.499 87s-62.5 43.5 -99.5 57.5s-75.833 21 -116.5 21c-46.667 0 -90.5 -8.83301 -131.5 -26.5s-76.833 -41.834 -107.5 -72.501s-54.834 -66.667 -72.501 -108
s-26.5 -85.333 -26.5 -132s8.83301 -90.5 26.5 -131.5s41.834 -76.833 72.501 -107.5s66.5 -54.834 107.5 -72.501s84.833 -26.5 131.5 -26.5z" />
    <glyph glyph-name="egrave" unicode="&#xe8;" horiz-adv-x="486" 
d="M216 765l-98 85h23l85 -85h-10zM19 696v-329h315v-19h-315v-329h431v-19h-450v715h450v-19h-431z" />
    <glyph glyph-name="eacute" unicode="&#xe9;" horiz-adv-x="486" 
d="M305 850l-98 -85h-10l85 85h23zM19 696v-329h315v-19h-315v-329h431v-19h-450v715h450v-19h-431z" />
    <glyph glyph-name="ecircumflex" unicode="&#xea;" horiz-adv-x="486" 
d="M216 844l-91 -79h-10l85 85h32l85 -85h-10zM19 696v-329h315v-19h-315v-329h431v-19h-450v715h450v-19h-431z" />
    <glyph glyph-name="edieresis" unicode="&#xeb;" horiz-adv-x="486" 
d="M295 818c7.33301 0 13.666 -2.5 18.999 -7.5s8 -11.167 8 -18.5s-2.66699 -13.666 -8 -18.999s-11.666 -8 -18.999 -8s-13.666 2.66699 -18.999 8s-8 11.666 -8 18.999s2.66699 13.5 8 18.5s11.666 7.5 18.999 7.5zM148 818c7.33301 0 13.666 -2.5 18.999 -7.5
s8 -11.167 8 -18.5s-2.66699 -13.666 -8 -18.999s-11.666 -8 -18.999 -8s-13.666 2.66699 -18.999 8s-8 11.666 -8 18.999s2.66699 13.5 8 18.5s11.666 7.5 18.999 7.5zM19 696v-329h315v-19h-315v-329h431v-19h-450v715h450v-19h-431z" />
    <glyph glyph-name="igrave" unicode="&#xec;" horiz-adv-x="372" 
d="M176 765l-98 85h23l85 -85h-10zM152 696v-677h133v-19h-285v19h133v677h-133v19h285v-19h-133z" />
    <glyph glyph-name="iacute" unicode="&#xed;" horiz-adv-x="372" 
d="M246 850l-98 -85h-10l85 85h23zM152 696v-677h133v-19h-285v19h133v677h-133v19h285v-19h-133z" />
    <glyph glyph-name="icircumflex" unicode="&#xee;" horiz-adv-x="372" 
d="M142 844l-90 -79h-11l85 85h32l85 -85h-10zM152 696v-677h133v-19h-285v19h133v677h-133v19h285v-19h-133z" />
    <glyph glyph-name="idieresis" unicode="&#xef;" horiz-adv-x="372" 
d="M214 818c7.33301 0 13.666 -2.5 18.999 -7.5s8 -11.167 8 -18.5s-2.66699 -13.666 -8 -18.999s-11.666 -8 -18.999 -8s-13.666 2.66699 -18.999 8s-8 11.666 -8 18.999s2.66699 13.5 8 18.5s11.666 7.5 18.999 7.5zM67 818c7.33301 0 13.666 -2.5 18.999 -7.5
s8 -11.167 8 -18.5s-2.66699 -13.666 -8 -18.999s-11.666 -8 -18.999 -8s-13.666 2.66699 -18.999 8s-8 11.666 -8 18.999s2.66699 13.5 8 18.5s11.666 7.5 18.999 7.5zM152 696v-677h133v-19h-285v19h133v677h-133v19h285v-19h-133z" />
    <glyph glyph-name="eth" unicode="&#xf0;" 
 />
    <glyph glyph-name="ntilde" unicode="&#xf1;" horiz-adv-x="682" 
d="M337 787c-10 -14.667 -21 -22 -33 -22c-5.33301 0 -10.333 1 -15 3s-9 4 -13 6c-5.33301 3.33301 -11 6 -17 8s-12.667 3 -20 3c-6 0 -11 -1.83301 -15 -5.5s-7.33301 -7.5 -10 -11.5l-6 9c8 14 19 21 33 21c5.33301 0 10.5 -0.833008 15.5 -2.5
s10.167 -3.83398 15.5 -6.50098c18 -7.33301 28.667 -11 32 -11c6 0 11 1.83301 15 5.5s7.66699 7.83398 11 12.501zM572 715v-715h-20l-533 681v-681h-19v715h19l533 -682v682h20z" />
    <glyph glyph-name="ograve" unicode="&#xf2;" horiz-adv-x="814" 
d="M389 765l-98 85h23l85 -85h-10zM357 696c46.667 0 90.5 -8.83301 131.5 -26.5s76.833 -41.834 107.5 -72.501s54.834 -66.667 72.501 -108s26.5 -85.333 26.5 -132s-8.83301 -90.5 -26.5 -131.5s-41.834 -76.833 -72.501 -107.5s-66.5 -54.834 -107.5 -72.501
s-84.833 -26.5 -131.5 -26.5s-90.5 8.83301 -131.5 26.5s-76.833 41.834 -107.5 72.501s-54.834 66.5 -72.501 107.5s-26.5 84.833 -26.5 131.5s8.83301 90.667 26.5 132s41.834 77.333 72.501 108s66.5 54.834 107.5 72.501s84.833 26.5 131.5 26.5zM357 0
c49.333 0 95.666 9.33301 138.999 28s81.166 44.167 113.499 76.5s57.833 70.166 76.5 113.499s28 89.666 28 138.999s-9.33301 95.833 -28 139.5s-44.167 81.667 -76.5 114s-70.166 57.833 -113.499 76.5s-89.666 28 -138.999 28s-95.666 -9.33301 -138.999 -28
s-81.166 -44.167 -113.499 -76.5s-57.833 -70.333 -76.5 -114s-28 -90.167 -28 -139.5s9.33301 -95.666 28 -138.999s44.167 -81.166 76.5 -113.499s70.166 -57.833 113.499 -76.5s89.666 -28 138.999 -28z" />
    <glyph glyph-name="oacute" unicode="&#xf3;" horiz-adv-x="814" 
d="M455 850l-98 -85h-10l85 85h23zM357 696c46.667 0 90.5 -8.83301 131.5 -26.5s76.833 -41.834 107.5 -72.501s54.834 -66.667 72.501 -108s26.5 -85.333 26.5 -132s-8.83301 -90.5 -26.5 -131.5s-41.834 -76.833 -72.501 -107.5s-66.5 -54.834 -107.5 -72.501
s-84.833 -26.5 -131.5 -26.5s-90.5 8.83301 -131.5 26.5s-76.833 41.834 -107.5 72.501s-54.834 66.5 -72.501 107.5s-26.5 84.833 -26.5 131.5s8.83301 90.667 26.5 132s41.834 77.333 72.501 108s66.5 54.834 107.5 72.501s84.833 26.5 131.5 26.5zM357 0
c49.333 0 95.666 9.33301 138.999 28s81.166 44.167 113.499 76.5s57.833 70.166 76.5 113.499s28 89.666 28 138.999s-9.33301 95.833 -28 139.5s-44.167 81.667 -76.5 114s-70.166 57.833 -113.499 76.5s-89.666 28 -138.999 28s-95.666 -9.33301 -138.999 -28
s-81.166 -44.167 -113.499 -76.5s-57.833 -70.333 -76.5 -114s-28 -90.167 -28 -139.5s9.33301 -95.666 28 -138.999s44.167 -81.166 76.5 -113.499s70.166 -57.833 113.499 -76.5s89.666 -28 138.999 -28z" />
    <glyph glyph-name="ocircumflex" unicode="&#xf4;" horiz-adv-x="814" 
d="M357 844l-90 -79h-11l85 85h32l85 -85h-10zM357 696c46.667 0 90.5 -8.83301 131.5 -26.5s76.833 -41.834 107.5 -72.501s54.834 -66.667 72.501 -108s26.5 -85.333 26.5 -132s-8.83301 -90.5 -26.5 -131.5s-41.834 -76.833 -72.501 -107.5s-66.5 -54.834 -107.5 -72.501
s-84.833 -26.5 -131.5 -26.5s-90.5 8.83301 -131.5 26.5s-76.833 41.834 -107.5 72.501s-54.834 66.5 -72.501 107.5s-26.5 84.833 -26.5 131.5s8.83301 90.667 26.5 132s41.834 77.333 72.501 108s66.5 54.834 107.5 72.501s84.833 26.5 131.5 26.5zM357 0
c49.333 0 95.666 9.33301 138.999 28s81.166 44.167 113.499 76.5s57.833 70.166 76.5 113.499s28 89.666 28 138.999s-9.33301 95.833 -28 139.5s-44.167 81.667 -76.5 114s-70.166 57.833 -113.499 76.5s-89.666 28 -138.999 28s-95.666 -9.33301 -138.999 -28
s-81.166 -44.167 -113.499 -76.5s-57.833 -70.333 -76.5 -114s-28 -90.167 -28 -139.5s9.33301 -95.666 28 -138.999s44.167 -81.166 76.5 -113.499s70.166 -57.833 113.499 -76.5s89.666 -28 138.999 -28z" />
    <glyph glyph-name="otilde" unicode="&#xf5;" horiz-adv-x="814" 
d="M420 787c-10 -14.667 -21 -22 -33 -22c-5.33301 0 -10.333 1 -15 3s-9 4 -13 6c-5.33301 3.33301 -11 6 -17 8s-12.667 3 -20 3c-6 0 -11 -1.83301 -15 -5.5s-7.33301 -7.5 -10 -11.5l-6 9c8 14 19 21 33 21c5.33301 0 10.5 -0.833008 15.5 -2.5
s10.167 -3.83398 15.5 -6.50098c18 -7.33301 28.667 -11 32 -11c6 0 11 1.83301 15 5.5s7.66699 7.83398 11 12.501zM357 696c46.667 0 90.5 -8.83301 131.5 -26.5s76.833 -41.834 107.5 -72.501s54.834 -66.667 72.501 -108s26.5 -85.333 26.5 -132
s-8.83301 -90.5 -26.5 -131.5s-41.834 -76.833 -72.501 -107.5s-66.5 -54.834 -107.5 -72.501s-84.833 -26.5 -131.5 -26.5s-90.5 8.83301 -131.5 26.5s-76.833 41.834 -107.5 72.501s-54.834 66.5 -72.501 107.5s-26.5 84.833 -26.5 131.5s8.83301 90.667 26.5 132
s41.834 77.333 72.501 108s66.5 54.834 107.5 72.501s84.833 26.5 131.5 26.5zM357 0c49.333 0 95.666 9.33301 138.999 28s81.166 44.167 113.499 76.5s57.833 70.166 76.5 113.499s28 89.666 28 138.999s-9.33301 95.833 -28 139.5s-44.167 81.667 -76.5 114
s-70.166 57.833 -113.499 76.5s-89.666 28 -138.999 28s-95.666 -9.33301 -138.999 -28s-81.166 -44.167 -113.499 -76.5s-57.833 -70.333 -76.5 -114s-28 -90.167 -28 -139.5s9.33301 -95.666 28 -138.999s44.167 -81.166 76.5 -113.499s70.166 -57.833 113.499 -76.5
s89.666 -28 138.999 -28z" />
    <glyph glyph-name="odieresis" unicode="&#xf6;" horiz-adv-x="814" 
d="M428 818c7.33301 0 13.666 -2.5 18.999 -7.5s8 -11.167 8 -18.5s-2.66699 -13.666 -8 -18.999s-11.666 -8 -18.999 -8s-13.666 2.66699 -18.999 8s-8 11.666 -8 18.999s2.66699 13.5 8 18.5s11.666 7.5 18.999 7.5zM281 818c7.33301 0 13.666 -2.5 18.999 -7.5
s8 -11.167 8 -18.5s-2.66699 -13.666 -8 -18.999s-11.666 -8 -18.999 -8s-13.666 2.66699 -18.999 8s-8 11.666 -8 18.999s2.66699 13.5 8 18.5s11.666 7.5 18.999 7.5zM357 696c46.667 0 90.5 -8.83301 131.5 -26.5s76.833 -41.834 107.5 -72.501
s54.834 -66.667 72.501 -108s26.5 -85.333 26.5 -132s-8.83301 -90.5 -26.5 -131.5s-41.834 -76.833 -72.501 -107.5s-66.5 -54.834 -107.5 -72.501s-84.833 -26.5 -131.5 -26.5s-90.5 8.83301 -131.5 26.5s-76.833 41.834 -107.5 72.501s-54.834 66.5 -72.501 107.5
s-26.5 84.833 -26.5 131.5s8.83301 90.667 26.5 132s41.834 77.333 72.501 108s66.5 54.834 107.5 72.501s84.833 26.5 131.5 26.5zM357 0c49.333 0 95.666 9.33301 138.999 28s81.166 44.167 113.499 76.5s57.833 70.166 76.5 113.499s28 89.666 28 138.999
s-9.33301 95.833 -28 139.5s-44.167 81.667 -76.5 114s-70.166 57.833 -113.499 76.5s-89.666 28 -138.999 28s-95.666 -9.33301 -138.999 -28s-81.166 -44.167 -113.499 -76.5s-57.833 -70.333 -76.5 -114s-28 -90.167 -28 -139.5s9.33301 -95.666 28 -138.999
s44.167 -81.166 76.5 -113.499s70.166 -57.833 113.499 -76.5s89.666 -28 138.999 -28z" />
    <glyph glyph-name="divide" unicode="&#xf7;" 
 />
    <glyph glyph-name="oslash" unicode="&#xf8;" 
 />
    <glyph glyph-name="ugrave" unicode="&#xf9;" horiz-adv-x="662" 
d="M298 765l-98 85h23l85 -85h-10zM550 715l0.00195312 -440c0 -38 -7.16699 -73.667 -21.5 -107s-34 -62.5 -59 -87.5s-54.167 -44.667 -87.5 -59s-69 -21.5 -107 -21.5s-73.667 7.16699 -107 21.5s-62.5 34 -87.5 59s-44.667 54.167 -59 87.5s-21.5 69 -21.5 107v440h19
v-440c0 -35.333 6.66699 -68.5 20 -99.5s31.666 -58.167 54.999 -81.5s50.5 -41.666 81.5 -54.999s64.167 -20 99.5 -20s68.5 6.66699 99.5 20s58.167 31.666 81.5 54.999s41.666 50.5 54.999 81.5s20 64.167 20 99.5h-1v440h20z" />
    <glyph glyph-name="uacute" unicode="&#xfa;" horiz-adv-x="662" 
d="M358 850l-98 -85h-10l85 85h23zM550 715l0.00195312 -440c0 -38 -7.16699 -73.667 -21.5 -107s-34 -62.5 -59 -87.5s-54.167 -44.667 -87.5 -59s-69 -21.5 -107 -21.5s-73.667 7.16699 -107 21.5s-62.5 34 -87.5 59s-44.667 54.167 -59 87.5s-21.5 69 -21.5 107v440h19
v-440c0 -35.333 6.66699 -68.5 20 -99.5s31.666 -58.167 54.999 -81.5s50.5 -41.666 81.5 -54.999s64.167 -20 99.5 -20s68.5 6.66699 99.5 20s58.167 31.666 81.5 54.999s41.666 50.5 54.999 81.5s20 64.167 20 99.5h-1v440h20z" />
    <glyph glyph-name="ucircumflex" unicode="&#xfb;" horiz-adv-x="662" 
d="M270 844l-90 -79h-11l85 85h32l85 -85h-10zM550 715l0.00195312 -440c0 -38 -7.16699 -73.667 -21.5 -107s-34 -62.5 -59 -87.5s-54.167 -44.667 -87.5 -59s-69 -21.5 -107 -21.5s-73.667 7.16699 -107 21.5s-62.5 34 -87.5 59s-44.667 54.167 -59 87.5
s-21.5 69 -21.5 107v440h19v-440c0 -35.333 6.66699 -68.5 20 -99.5s31.666 -58.167 54.999 -81.5s50.5 -41.666 81.5 -54.999s64.167 -20 99.5 -20s68.5 6.66699 99.5 20s58.167 31.666 81.5 54.999s41.666 50.5 54.999 81.5s20 64.167 20 99.5h-1v440h20z" />
    <glyph glyph-name="udieresis" unicode="&#xfc;" horiz-adv-x="662" 
d="M333 818c7.33301 0 13.666 -2.5 18.999 -7.5s8 -11.167 8 -18.5s-2.66699 -13.666 -8 -18.999s-11.666 -8 -18.999 -8s-13.666 2.66699 -18.999 8s-8 11.666 -8 18.999s2.66699 13.5 8 18.5s11.666 7.5 18.999 7.5zM186 818c7.33301 0 13.666 -2.5 18.999 -7.5
s8 -11.167 8 -18.5s-2.66699 -13.666 -8 -18.999s-11.666 -8 -18.999 -8s-13.666 2.66699 -18.999 8s-8 11.666 -8 18.999s2.66699 13.5 8 18.5s11.666 7.5 18.999 7.5zM550 715l0.00195312 -440c0 -38 -7.16699 -73.667 -21.5 -107s-34 -62.5 -59 -87.5
s-54.167 -44.667 -87.5 -59s-69 -21.5 -107 -21.5s-73.667 7.16699 -107 21.5s-62.5 34 -87.5 59s-44.667 54.167 -59 87.5s-21.5 69 -21.5 107v440h19v-440c0 -35.333 6.66699 -68.5 20 -99.5s31.666 -58.167 54.999 -81.5s50.5 -41.666 81.5 -54.999s64.167 -20 99.5 -20
s68.5 6.66699 99.5 20s58.167 31.666 81.5 54.999s41.666 50.5 54.999 81.5s20 64.167 20 99.5h-1v440h20z" />
    <glyph glyph-name="ydieresis" unicode="&#xff;" 
 />
    <glyph glyph-name="circumflex" unicode="&#x2c6;" horiz-adv-x="309" 
d="M101 709l-91 -79h-10l85 85h32l85 -85h-10z" />
    <glyph glyph-name="endash" unicode="&#x2013;" horiz-adv-x="456" 
d="M0 338v19h333v-19h-333z" />
    <glyph glyph-name="emdash" unicode="&#x2014;" horiz-adv-x="456" 
d="M0 338v19h333v-19h-333z" />
    <glyph glyph-name="quoteleft" unicode="&#x2018;" horiz-adv-x="160" 
d="M23 596h-23l41 119h10z" />
    <glyph glyph-name="quoteright" unicode="&#x2019;" horiz-adv-x="159" 
d="M51 715l-41 -119h-10l28 119h23z" />
    <glyph glyph-name="quotedblleft" unicode="&#x201c;" horiz-adv-x="237" 
d="M0 596l41 119h10l-28 -119h-23zM101 596h-23l40 119h11z" />
    <glyph glyph-name="quotedblright" unicode="&#x201d;" horiz-adv-x="237" 
d="M129 715l-41 -119h-10l27 119h24zM28 715h23l-41 -119h-10z" />
    </font>
</defs>
</svg>
